<svg width="31" height="30" viewBox="0 0 31 30" fill="none" xmlns="http://www.w3.org/2000/svg">
<g id="001-facebook 1" clip-path="url(#clip0_146_467)">
<path id="Vector" d="M17.631 29.8047C17.5061 29.8251 17.3806 29.8438 17.2548 29.861C17.3806 29.8438 17.5061 29.8251 17.631 29.8047Z" fill="#0E3367"/>
<path id="Vector_2" d="M17.9317 29.7539C17.8719 29.7649 17.8122 29.775 17.7524 29.7853C17.8122 29.775 17.8719 29.7649 17.9317 29.7539Z" fill="#0E3367"/>
<path id="Vector_3" d="M16.9185 29.9023C16.7722 29.9188 16.625 29.9335 16.4774 29.9458C16.625 29.9335 16.7722 29.9188 16.9185 29.9023Z" fill="#0E3367"/>
<path id="Vector_4" d="M17.2075 29.8672C17.1372 29.8766 17.0665 29.8853 16.996 29.8935C17.0665 29.8853 17.1372 29.8766 17.2075 29.8672Z" fill="#0E3367"/>
<path id="Vector_5" d="M18.3406 29.6729C18.288 29.6841 18.2351 29.6953 18.1823 29.706C18.2351 29.6953 18.288 29.6841 18.3406 29.6729Z" fill="#0E3367"/>
<path id="Vector_6" d="M19.3555 29.4209C19.3129 29.433 19.2704 29.4445 19.2278 29.4564C19.2704 29.4445 19.3129 29.433 19.3555 29.4209Z" fill="#0E3367"/>
<path id="Vector_7" d="M19.0487 29.5049C19.0025 29.517 18.956 29.5294 18.9095 29.541C18.956 29.5294 19.0025 29.5172 19.0487 29.5049Z" fill="#0E3367"/>
<path id="Vector_8" d="M18.6471 29.6045C18.5981 29.6159 18.5487 29.6267 18.4993 29.6377C18.5487 29.6267 18.5981 29.6159 18.6471 29.6045Z" fill="#0E3367"/>
<path id="Vector_9" d="M16.4724 29.9463C16.3934 29.9529 16.3144 29.9589 16.2352 29.9641C16.3144 29.9589 16.3934 29.9529 16.4724 29.9463Z" fill="#0E3367"/>
<path id="Vector_10" d="M30.2304 15C30.2304 6.717 23.504 0 15.2095 0C6.91504 0 0.188721 6.717 0.188721 15C0.188721 23.283 6.91504 30 15.2095 30C15.2978 30 15.3856 29.9982 15.4736 29.9966V18.3197H12.2464V14.564H15.4736V11.8002C15.4736 8.59497 17.433 6.85043 20.2962 6.85043C21.6672 6.85043 22.8458 6.95251 23.1894 6.99806V10.348H21.215C19.6574 10.348 19.3558 11.0873 19.3558 12.1719V14.564H23.0802L22.5948 18.3197H19.3558V29.4205C25.6342 27.6231 30.2304 21.8468 30.2304 15Z" fill="#0E3367"/>
<path id="Vector_11" d="M16.2013 29.9668C16.0452 29.9769 15.8884 29.9849 15.7312 29.9901C15.8884 29.9849 16.0452 29.9769 16.2013 29.9668Z" fill="#0E3367"/>
<path id="Vector_12" d="M15.7228 29.9902C15.6399 29.993 15.5568 29.995 15.4738 29.9964C15.5568 29.995 15.6399 29.993 15.7228 29.9902Z" fill="#0E3367"/>
</g>
<defs>
<clipPath id="clip0_146_467">
<rect width="30.0416" height="30" fill="white" transform="translate(0.188721)"/>
</clipPath>
</defs>
</svg>
