<svg width="31" height="30" viewBox="0 0 31 30" fill="none" xmlns="http://www.w3.org/2000/svg">
<g id="003-whatsapp 1" clip-path="url(#clip0_146_481)">
<path id="Vector" d="M15.2914 0C6.99695 0 0.27063 6.717 0.27063 15C0.27063 23.283 6.99695 30 15.2914 30C23.5859 30 30.3123 23.283 30.3123 15C30.3123 6.717 23.5859 0 15.2914 0ZM15.6098 23.7334C15.6096 23.7334 15.61 23.7334 15.6098 23.7334H15.6061C14.1014 23.7328 12.6229 23.356 11.3098 22.641L6.54405 23.8891L7.81954 19.2382C7.0327 17.8773 6.61877 16.3332 6.61946 14.7514C6.62152 9.80301 10.6545 5.77721 15.6098 5.77721C18.0146 5.77812 20.272 6.71288 21.9692 8.40912C23.6666 10.1056 24.6008 12.3605 24.5999 14.7585C24.5979 19.7072 20.5644 23.7334 15.6098 23.7334Z" fill="#0E3367"/>
<path id="Vector_2" d="M15.6128 7.29297C11.4911 7.29297 8.13904 10.639 8.13721 14.752C8.13675 16.1615 8.53189 17.5341 9.27977 18.7217L9.4574 19.0039L8.70241 21.7567L11.5305 21.016L11.8035 21.1776C12.9506 21.8574 14.2658 22.217 15.6066 22.2174H15.6096C19.7281 22.2174 23.0801 18.8712 23.0819 14.758C23.0826 12.7646 22.3061 10.8905 20.8954 9.48062C19.4847 8.07071 17.6084 7.29366 15.6128 7.29297ZM20.0079 17.9591C19.8207 18.4828 18.9233 18.9609 18.4918 19.0255C18.1046 19.0831 17.6151 19.1072 17.0769 18.9366C16.7505 18.8332 16.3322 18.6952 15.7961 18.4642C13.5429 17.4929 12.0712 15.2278 11.9589 15.0782C11.8466 14.9285 11.0416 13.8621 11.0416 12.7582C11.0416 11.6545 11.622 11.1119 11.8278 10.8876C12.0338 10.663 12.2772 10.6069 12.4269 10.6069C12.5766 10.6069 12.7265 10.6083 12.8573 10.6147C12.9953 10.6216 13.1805 10.5623 13.3627 10.9997C13.55 11.4488 13.9992 12.5524 14.0554 12.6646C14.1115 12.777 14.1489 12.9079 14.0742 13.0576C13.9992 13.2073 13.7503 13.5302 13.5126 13.8246C13.4129 13.9479 13.283 14.0578 13.4141 14.2823C13.5449 14.5066 13.996 15.2411 14.6637 15.8358C15.5218 16.5998 16.2456 16.8364 16.4702 16.9488C16.6946 17.061 16.8257 17.0422 16.9568 16.8927C17.0877 16.743 17.5184 16.2379 17.668 16.0134C17.8177 15.7888 17.9676 15.8264 18.1734 15.9012C18.3795 15.9758 19.4837 16.5185 19.7084 16.6307C19.933 16.743 20.0826 16.7991 20.1388 16.8927C20.1952 16.9863 20.1952 17.4352 20.0079 17.9591Z" fill="#0E3367"/>
</g>
<defs>
<clipPath id="clip0_146_481">
<rect width="30.0416" height="30" fill="white" transform="translate(0.27063)"/>
</clipPath>
</defs>
</svg>
