<svg width="31" height="30" viewBox="0 0 31 30" fill="none" xmlns="http://www.w3.org/2000/svg">
<g id="011-instagram 1" clip-path="url(#clip0_146_484)">
<path id="Vector" d="M18.2428 15C18.2428 16.5857 16.9556 17.8711 15.3678 17.8711C13.7799 17.8711 12.4927 16.5857 12.4927 15C12.4927 13.4143 13.7799 12.1289 15.3678 12.1289C16.9556 12.1289 18.2428 13.4143 18.2428 15Z" fill="#0E3367"/>
<path id="Vector_2" d="M22.0916 9.91991C21.9534 9.54591 21.7329 9.2074 21.4464 8.92953C21.1681 8.64343 20.8294 8.42325 20.4546 8.28523C20.1507 8.16736 19.6941 8.02705 18.8532 7.98883C17.9435 7.9474 17.6708 7.93848 15.3678 7.93848C13.0645 7.93848 12.7918 7.94717 11.8823 7.9886C11.0414 8.02705 10.5846 8.16736 10.2809 8.28523C9.90618 8.42325 9.56719 8.64343 9.28917 8.92953C9.00267 9.2074 8.78218 9.54568 8.64375 9.91991C8.52571 10.2234 8.38521 10.6796 8.34693 11.5193C8.30545 12.4275 8.29651 12.6999 8.29651 14.9999C8.29651 17.2997 8.30545 17.5721 8.34693 18.4805C8.38521 19.3203 8.52571 19.7762 8.64375 20.0797C8.78218 20.454 9.00244 20.7923 9.28894 21.0701C9.56719 21.3562 9.90595 21.5764 10.2807 21.7144C10.5846 21.8325 11.0414 21.9728 11.8823 22.011C12.7918 22.0525 13.0643 22.0612 15.3675 22.0612C17.671 22.0612 17.9437 22.0525 18.853 22.011C19.6939 21.9728 20.1507 21.8325 20.4546 21.7144C21.2069 21.4247 21.8014 20.8309 22.0916 20.0797C22.2096 19.7762 22.3501 19.3203 22.3886 18.4805C22.4301 17.5721 22.4388 17.2997 22.4388 14.9999C22.4388 12.6999 22.4301 12.4275 22.3886 11.5193C22.3503 10.6796 22.2098 10.2234 22.0916 9.91991ZM15.3678 19.4226C12.9215 19.4226 10.9385 17.4426 10.9385 14.9997C10.9385 12.5569 12.9215 10.5768 15.3678 10.5768C17.8138 10.5768 19.7968 12.5569 19.7968 14.9997C19.7968 17.4426 17.8138 19.4226 15.3678 19.4226ZM19.9719 11.4356C19.4003 11.4356 18.9369 10.9728 18.9369 10.4019C18.9369 9.8311 19.4003 9.3683 19.9719 9.3683C20.5436 9.3683 21.007 9.8311 21.007 10.4019C21.0068 10.9728 20.5436 11.4356 19.9719 11.4356Z" fill="#0E3367"/>
<path id="Vector_3" d="M15.3677 0C7.07324 0 0.346924 6.717 0.346924 15C0.346924 23.283 7.07324 30 15.3677 30C23.6622 30 30.3886 23.283 30.3886 15C30.3886 6.717 23.6622 0 15.3677 0ZM23.941 18.5511C23.8992 19.468 23.7532 20.094 23.5401 20.6419C23.092 21.7989 22.1761 22.7135 21.0175 23.161C20.469 23.3739 19.8419 23.5194 18.924 23.5613C18.0042 23.6032 17.7104 23.6133 15.368 23.6133C13.0253 23.6133 12.7317 23.6032 11.8117 23.5613C10.8938 23.5194 10.2667 23.3739 9.7182 23.161C9.14246 22.9447 8.62125 22.6057 8.19036 22.1674C7.75167 21.7374 7.41223 21.2167 7.19563 20.6419C6.98248 20.0942 6.83648 19.468 6.79476 18.5513C6.75236 17.6326 6.74251 17.3392 6.74251 15C6.74251 12.6608 6.75236 12.3674 6.79454 11.4489C6.83625 10.532 6.98202 9.90601 7.19518 9.35806C7.41177 8.78334 7.75144 8.26263 8.19036 7.83257C8.62103 7.39426 9.14246 7.05528 9.71797 6.83899C10.2667 6.62613 10.8935 6.48056 11.8117 6.43867C12.7315 6.39679 13.0253 6.38672 15.3677 6.38672C17.7102 6.38672 18.004 6.39679 18.9238 6.4389C19.8419 6.48056 20.4688 6.62613 21.0175 6.83876C21.593 7.05505 22.1145 7.39426 22.5454 7.83257C22.984 8.26286 23.3237 8.78334 23.5401 9.35806C23.7535 9.90601 23.8992 10.532 23.9412 11.4489C23.9831 12.3674 23.993 12.6608 23.993 15C23.993 17.3392 23.9831 17.6326 23.941 18.5511Z" fill="#0E3367"/>
</g>
<defs>
<clipPath id="clip0_146_484">
<rect width="30.0416" height="30" fill="white" transform="translate(0.346924)"/>
</clipPath>
</defs>
</svg>
