<svg width="50" height="35" viewBox="0 0 50 35" fill="none" xmlns="http://www.w3.org/2000/svg">
<g id="20">
<path d="M1.02573 11.2448C1.02573 9.55725 1.28623 8.03199 1.80723 6.66899C2.32824 5.27353 3.07718 4.08901 4.05406 3.11544C5.03095 2.10941 6.20321 1.34678 7.57084 0.827539C8.97104 0.275846 10.5178 0 12.211 0C13.9369 0 15.451 0.25962 16.7535 0.778861C18.0886 1.26565 19.1957 1.93092 20.0749 2.77469C20.9867 3.61845 21.6705 4.62448 22.1264 5.79277C22.5823 6.96106 22.8102 8.19425 22.8102 9.49235C22.8102 11.0176 22.5497 12.3644 22.0287 13.5327C21.5403 14.701 20.8727 15.7395 20.0261 16.6481C19.212 17.5568 18.2677 18.3681 17.1931 19.0821C16.1511 19.796 15.0766 20.4775 13.9694 21.1266C12.8623 21.7432 11.7714 22.3435 10.6969 22.9277C9.6223 23.5118 8.6617 24.1284 7.81506 24.7775C7.2615 25.1994 6.72421 25.6537 6.20321 26.1405C5.6822 26.5948 5.21004 27.0978 4.78673 27.6495C4.36341 28.2012 4.0215 28.8178 3.761 29.4993C3.5005 30.1484 3.35397 30.8785 3.3214 31.6898H22.5172V34.3185H0C0.0325628 32.6634 0.211658 31.1706 0.537286 29.8401C0.862913 28.5095 1.57929 27.2114 2.68643 25.9458C3.89125 24.5828 5.12864 23.4145 6.39858 22.4409C7.70109 21.4673 8.97104 20.6073 10.2084 19.8609C11.4458 19.0821 12.6181 18.3843 13.7252 17.7677C14.8323 17.1187 15.8092 16.421 16.6559 15.6745C17.5025 14.9281 18.17 14.0844 18.6585 13.1433C19.1469 12.2021 19.3911 11.0501 19.3911 9.68707C19.3911 8.58368 19.1958 7.59388 18.805 6.71766C18.4142 5.84145 17.877 5.09504 17.1931 4.47844C16.5093 3.86185 15.7115 3.40751 14.7998 3.11544C13.888 2.79091 12.8949 2.62865 11.8203 2.62865C10.6806 2.62865 9.63858 2.87205 8.69426 3.35883C7.7825 3.81317 6.98471 4.42976 6.30089 5.20862C5.64964 5.98748 5.14492 6.89615 4.78673 7.93463C4.42854 8.97311 4.282 10.0765 4.34713 11.2448H1.02573Z" fill="#0E3367"/>
<path d="M46.874 17.427C46.874 15.5772 46.76 13.7761 46.5321 12.0236C46.3367 10.2388 45.9297 8.64859 45.311 7.25313C44.6923 5.85767 43.8131 4.73806 42.6734 3.8943C41.5662 3.05053 40.1009 2.62865 38.2774 2.62865C36.5516 2.62865 35.1351 3.06676 34.028 3.94298C32.9534 4.78674 32.1068 5.92258 31.4881 7.35049C30.8694 8.7784 30.4298 10.401 30.1693 12.2184C29.9413 14.0357 29.8274 15.8855 29.8274 17.7677C29.8274 19.9745 29.9576 21.9866 30.2181 23.8039C30.5112 25.5888 30.9833 27.114 31.6346 28.3797C32.2859 29.6453 33.1488 30.6351 34.2233 31.3491C35.3305 32.0306 36.7144 32.3713 38.3751 32.3713C40.2312 32.3713 41.7128 31.917 42.8199 31.0083C43.9596 30.0997 44.8225 28.9314 45.4086 27.5035C45.9948 26.0756 46.3855 24.4692 46.5809 22.6843C46.7763 20.8994 46.874 19.147 46.874 17.427ZM38.3751 0C40.0684 0 41.5337 0.25962 42.7711 0.778861C44.0085 1.26565 45.0505 1.94715 45.8971 2.82337C46.7763 3.69958 47.4764 4.72184 47.9974 5.89012C48.551 7.05841 48.9743 8.30783 49.2673 9.63839C49.5604 10.9365 49.7558 12.2833 49.8535 13.6787C49.9512 15.0742 50 16.4372 50 17.7677C50 20.0394 49.8372 22.2137 49.5116 24.2907C49.1859 26.3676 48.5835 28.2012 47.7043 29.7914C46.8577 31.3815 45.6854 32.6472 44.1875 33.5883C42.6897 34.5294 40.7522 35 38.3751 35C35.998 35 34.0442 34.5294 32.5138 33.5883C31.0159 32.6472 29.8274 31.3815 28.9482 29.7914C28.1015 28.1688 27.5154 26.3027 27.1898 24.1933C26.8642 22.0515 26.7013 19.796 26.7013 17.427C26.7013 15.2527 26.8479 13.127 27.1409 11.0501C27.434 8.97311 27.9876 7.12332 28.8016 5.5007C29.6483 3.84562 30.8368 2.51507 32.3673 1.50904C33.8977 0.503014 35.9003 0 38.3751 0Z" fill="#0E3367"/>
</g>
</svg>
