<svg width="18" height="18" viewBox="0 0 18 18" fill="none" xmlns="http://www.w3.org/2000/svg">
<g id="calendar 1" clip-path="url(#clip0_146_269)">
<g id="Group">
<g id="Group_2">
<path id="Vector" d="M16.0714 1.92857H14.1429V0.642869C14.1429 0.287816 13.855 0 13.5 0C13.1449 0 12.8571 0.287816 12.8571 0.642869V1.92857H5.14284V0.642869C5.14284 0.287816 4.85502 0 4.50001 0C4.14499 0 3.85714 0.287816 3.85714 0.642869V1.92857H1.92857C0.863449 1.92857 0 2.79202 0 3.85714V16.0714C0 17.1365 0.863449 18 1.92857 18H16.0714C17.1365 18 18 17.1365 18 16.0714V3.85714C18 2.79202 17.1365 1.92857 16.0714 1.92857ZM16.7143 16.0714C16.7143 16.4265 16.4264 16.7143 16.0714 16.7143H1.92857C1.57352 16.7143 1.2857 16.4265 1.2857 16.0714V7.71428H16.7143V16.0714ZM16.7143 6.42858H1.2857V3.85714C1.2857 3.50209 1.57352 3.21427 1.92857 3.21427H3.85714V4.49997C3.85714 4.85502 4.14496 5.14284 4.50001 5.14284C4.85506 5.14284 5.14288 4.85502 5.14288 4.49997V3.21427H12.8572V4.49997C12.8572 4.85502 13.145 5.14284 13.5 5.14284C13.8551 5.14284 14.1429 4.85502 14.1429 4.49997V3.21427H16.0715C16.4265 3.21427 16.7143 3.50209 16.7143 3.85714V6.42858H16.7143Z" fill="white"/>
</g>
</g>
<g id="Group_3">
<g id="Group_4">
<path id="Vector_2" d="M5.14281 9H3.8571C3.50205 9 3.21423 9.28782 3.21423 9.64287C3.21423 9.99793 3.50205 10.2857 3.8571 10.2857H5.14281C5.49786 10.2857 5.78568 9.99793 5.78568 9.64287C5.78568 9.28782 5.49786 9 5.14281 9Z" fill="white"/>
</g>
</g>
<g id="Group_5">
<g id="Group_6">
<path id="Vector_3" d="M9.6428 9H8.3571C8.00205 9 7.71423 9.28782 7.71423 9.64287C7.71423 9.99793 8.00205 10.2857 8.3571 10.2857H9.6428C9.99785 10.2857 10.2857 9.99793 10.2857 9.64287C10.2857 9.28782 9.99785 9 9.6428 9Z" fill="white"/>
</g>
</g>
<g id="Group_7">
<g id="Group_8">
<path id="Vector_4" d="M14.1428 9H12.8571C12.5021 9 12.2142 9.28782 12.2142 9.64287C12.2142 9.99793 12.5021 10.2857 12.8571 10.2857H14.1428C14.4979 10.2857 14.7857 9.99793 14.7857 9.64287C14.7856 9.28782 14.4978 9 14.1428 9Z" fill="white"/>
</g>
</g>
<g id="Group_9">
<g id="Group_10">
<path id="Vector_5" d="M5.14281 11.5713H3.8571C3.50205 11.5713 3.21423 11.8591 3.21423 12.2142C3.21423 12.5692 3.50205 12.857 3.8571 12.857H5.14281C5.49786 12.857 5.78568 12.5692 5.78568 12.2142C5.78568 11.8591 5.49786 11.5713 5.14281 11.5713Z" fill="white"/>
</g>
</g>
<g id="Group_11">
<g id="Group_12">
<path id="Vector_6" d="M9.6428 11.5713H8.3571C8.00205 11.5713 7.71423 11.8591 7.71423 12.2142C7.71423 12.5692 8.00205 12.857 8.3571 12.857H9.6428C9.99785 12.857 10.2857 12.5692 10.2857 12.2142C10.2857 11.8591 9.99785 11.5713 9.6428 11.5713Z" fill="white"/>
</g>
</g>
<g id="Group_13">
<g id="Group_14">
<path id="Vector_7" d="M14.1428 11.5713H12.8571C12.5021 11.5713 12.2142 11.8591 12.2142 12.2142C12.2142 12.5692 12.5021 12.857 12.8571 12.857H14.1428C14.4979 12.857 14.7857 12.5692 14.7857 12.2142C14.7856 11.8591 14.4978 11.5713 14.1428 11.5713Z" fill="white"/>
</g>
</g>
<g id="Group_15">
<g id="Group_16">
<path id="Vector_8" d="M5.14281 14.1426H3.8571C3.50205 14.1426 3.21423 14.4304 3.21423 14.7854C3.21423 15.1405 3.50205 15.4283 3.8571 15.4283H5.14281C5.49786 15.4283 5.78568 15.1405 5.78568 14.7854C5.78568 14.4304 5.49786 14.1426 5.14281 14.1426Z" fill="white"/>
</g>
</g>
<g id="Group_17">
<g id="Group_18">
<path id="Vector_9" d="M9.6428 14.1426H8.3571C8.00205 14.1426 7.71423 14.4304 7.71423 14.7854C7.71423 15.1405 8.00205 15.4283 8.3571 15.4283H9.6428C9.99785 15.4283 10.2857 15.1405 10.2857 14.7854C10.2857 14.4304 9.99785 14.1426 9.6428 14.1426Z" fill="white"/>
</g>
</g>
<g id="Group_19">
<g id="Group_20">
<path id="Vector_10" d="M14.1428 14.1426H12.8571C12.5021 14.1426 12.2142 14.4304 12.2142 14.7854C12.2142 15.1405 12.5021 15.4283 12.8571 15.4283H14.1428C14.4979 15.4283 14.7857 15.1405 14.7857 14.7854C14.7857 14.4304 14.4978 14.1426 14.1428 14.1426Z" fill="white"/>
</g>
</g>
</g>
<defs>
<clipPath id="clip0_146_269">
<rect width="18" height="18" fill="white"/>
</clipPath>
</defs>
</svg>
