<svg width="18" height="18" viewBox="0 0 18 18" fill="none" xmlns="http://www.w3.org/2000/svg">
<g id="clock 1" clip-path="url(#clip0_146_300)">
<g id="Group">
<g id="Group_2">
<path id="Vector" d="M8.99998 0C4.02943 0 0 4.02943 0 8.99998C0 13.9705 4.02943 18 8.99998 18C13.9705 18 18 13.9705 18 8.99998C17.9947 4.03165 13.9683 0.0053111 8.99998 0ZM8.99998 16.7143C4.7395 16.7143 1.2857 13.2605 1.2857 8.99998C1.2857 4.7395 4.7395 1.2857 8.99998 1.2857C13.2605 1.2857 16.7143 4.7395 16.7143 8.99998C16.7097 13.2586 13.2586 16.7097 8.99998 16.7143Z" fill="white"/>
</g>
</g>
<g id="Group_3">
<g id="Group_4">
<path id="Vector_2" d="M8.99994 3.21436C8.64489 3.21436 8.35707 3.50217 8.35707 3.85722V8.35723H3.8571C3.50205 8.35723 3.21423 8.64505 3.21423 9.0001C3.21423 9.35516 3.50205 9.64293 3.8571 9.64293H8.99994C9.355 9.64293 9.64281 9.35512 9.64281 9.00006V3.85722C9.64281 3.50217 9.355 3.21436 8.99994 3.21436Z" fill="white"/>
</g>
</g>
</g>
<defs>
<clipPath id="clip0_146_300">
<rect width="18" height="18" fill="white"/>
</clipPath>
</defs>
</svg>
