<svg width="26" height="25" viewBox="0 0 26 25" fill="none" xmlns="http://www.w3.org/2000/svg">
<g id="map (1) 1">
<path id="Vector" d="M13.0635 0C8.01127 0 3.90112 4.11015 3.90112 9.16233C3.90112 11.4832 5.36349 14.7623 8.24778 18.9087C10.356 21.9397 12.4295 24.2851 12.5168 24.3835L13.0635 25L13.6103 24.3835C13.6975 24.2851 15.7709 21.9397 17.8793 18.9087C20.7634 14.7623 22.226 11.4832 22.226 9.16233C22.226 4.11015 18.1156 0 13.0635 0ZM16.6874 18.0622C15.2624 20.1122 13.8222 21.8765 13.0635 22.7766C12.3066 21.879 10.8717 20.1214 9.44769 18.074C6.77531 14.2323 5.36272 11.1506 5.36272 9.16233C5.36272 4.91619 8.81731 1.4616 13.0635 1.4616C17.3098 1.4616 20.7642 4.91619 20.7642 9.16233C20.7642 11.1485 19.3545 14.226 16.6874 18.0622Z" fill="#0E3367"/>
<path id="Vector_2" d="M13.0635 3.38672C10.0818 3.38672 7.65601 5.81249 7.65601 8.79425C7.65601 11.776 10.0818 14.202 13.0635 14.202C16.0455 14.202 18.4712 11.776 18.4712 8.79425C18.4712 5.81249 16.0455 3.38672 13.0635 3.38672ZM13.0635 12.7404C10.8878 12.7404 9.11761 10.9702 9.11761 8.79425C9.11761 6.61853 10.8878 4.84832 13.0635 4.84832C15.2394 4.84832 17.0096 6.61853 17.0096 8.79425C17.0096 10.9702 15.2394 12.7404 13.0635 12.7404Z" fill="#0E3367"/>
</g>
</svg>
