<svg width="18" height="18" viewBox="0 0 18 18" fill="none" xmlns="http://www.w3.org/2000/svg">
<g id="map (1) 1">
<path id="Vector" d="M8.9875 0C5.34993 0 2.39062 2.9593 2.39062 6.59688C2.39062 8.2679 3.44353 10.6289 5.52022 13.6143C7.03812 15.7966 8.53102 17.4853 8.59392 17.5562L8.9875 18L9.38123 17.5562C9.44398 17.4853 10.9369 15.7966 12.4549 13.6143C14.5315 10.6289 15.5845 8.2679 15.5845 6.59688C15.5845 2.9593 12.6251 0 8.9875 0ZM11.5968 13.0048C10.5708 14.4808 9.5338 15.7511 8.9875 16.3992C8.44258 15.7529 7.40945 14.4874 6.38416 13.0133C4.46004 10.2472 3.44298 8.0284 3.44298 6.59688C3.44298 3.53966 5.93028 1.05235 8.9875 1.05235C12.0449 1.05235 14.532 3.53966 14.532 6.59688C14.532 8.02689 13.517 10.2427 11.5968 13.0048Z" fill="white"/>
<path id="Vector_2" d="M8.98741 2.43799C6.84055 2.43799 5.09399 4.18454 5.09399 6.33141C5.09399 8.47828 6.84055 10.225 8.98741 10.225C11.1344 10.225 12.881 8.47828 12.881 6.33141C12.881 4.18454 11.1344 2.43799 8.98741 2.43799ZM8.98741 9.17261C7.4209 9.17261 6.14635 7.89806 6.14635 6.33141C6.14635 4.76489 7.4209 3.49034 8.98741 3.49034C10.5541 3.49034 11.8286 4.76489 11.8286 6.33141C11.8286 7.89806 10.5541 9.17261 8.98741 9.17261Z" fill="white"/>
</g>
</svg>
