<svg width="50" height="50" viewBox="0 0 50 50" fill="none" xmlns="http://www.w3.org/2000/svg">
<g id="money 1" clip-path="url(#clip0_146_340)">
<g id="Group">
<path id="Vector" d="M47.0914 3.125L44.8508 1.78047C43.7609 1.12656 42.5133 0.78125 41.243 0.78125H34.375C33.5133 0.78125 32.8125 1.48203 32.8125 2.34375C32.8125 2.91563 32.9781 3.44453 33.2469 3.90625H29.6875C28.3953 3.90625 27.3438 4.95781 27.3438 6.25C27.3438 6.525 27.4 6.78594 27.4875 7.03125H25C23.7078 7.03125 22.6562 8.08281 22.6562 9.375V12.0477C19.4516 13.0164 17.1875 16.0148 17.1875 19.4062C17.1875 22.8211 19.4805 25.8602 22.7625 26.7977L25.9492 27.7078C27.2305 28.0742 28.125 29.2609 28.125 30.5938C28.125 32.2484 26.7789 33.5938 25.125 33.5938H24.875C23.2211 33.5938 21.875 32.2477 21.875 30.5938V30.4688C21.875 29.1766 20.8234 28.125 19.5312 28.125C18.2391 28.125 17.1875 29.1766 17.1875 30.4688V30.5938C17.1875 32.2789 17.7477 33.8664 18.7031 35.1562H16.7531C17.0219 34.6945 17.1875 34.1656 17.1875 33.5938C17.1875 32.732 16.4867 32.0312 15.625 32.0312H8.75703C7.48672 32.0312 6.23906 32.3766 5.14844 33.0305L2.90859 34.375H0.78125V46.875H2.90859L5.14922 48.2195C6.23906 48.8734 7.48672 49.2188 8.75703 49.2188H18.75C20.0422 49.2188 21.0938 48.1672 21.0938 46.875C21.0938 46.5664 21.0305 46.2734 20.9219 46.0031C21.918 45.7328 22.6562 44.8305 22.6562 43.75C22.6562 43.475 22.6 43.2141 22.5125 42.9688H25C26.2922 42.9688 27.3438 41.9172 27.3438 40.625V37.9523C30.5484 36.9836 32.8125 33.9852 32.8125 30.5938C32.8125 27.1789 30.5195 24.1398 27.2375 23.2023L24.0508 22.2922C22.7695 21.9258 21.875 20.7391 21.875 19.4062C21.875 17.7516 23.2211 16.4062 24.875 16.4062H25.1242C26.7789 16.4062 28.1242 17.7523 28.1242 19.4062V19.5312C28.1242 20.8234 29.1758 21.875 30.468 21.875C31.7602 21.875 32.8117 20.8234 32.8117 19.5312V19.4062C32.8117 18.9164 32.7594 18.4367 32.6688 17.9688H41.2414C42.5117 17.9688 43.7594 17.6234 44.85 16.9695L47.0914 15.625H49.2188V3.125H47.0914ZM21.0938 43.75C21.0938 44.1805 20.743 44.5312 20.3125 44.5312H18.75H10.9375V46.0938H18.75C19.1805 46.0938 19.5312 46.4445 19.5312 46.875C19.5312 47.3055 19.1805 47.6562 18.75 47.6562H8.75703C7.76953 47.6562 6.8 47.3875 5.95312 46.8797L3.34141 45.3125H2.34375V35.9375H3.34141L5.95312 34.3703C6.8 33.8625 7.76953 33.5938 8.75703 33.5938H15.625C15.625 34.4555 14.9242 35.1562 14.0625 35.1562H10.9375H10.6141L9.41406 36.3563C8.67656 37.0938 7.69531 37.5 6.65234 37.5H5.46875V39.0625H6.65234C8.11328 39.0625 9.48594 38.4938 10.5195 37.4609L11.2617 36.7188H14.0625H20.2531C20.9656 37.2594 21.7734 37.6852 22.6562 37.9523V38.2812H10.9375V39.8438H22.6562V40.625C22.6562 40.9 22.7125 41.1609 22.8 41.4062H20.3125H10.9375V42.9688H20.3125C20.743 42.9688 21.0938 43.3195 21.0938 43.75ZM31.25 19.5312C31.25 19.9617 30.8992 20.3125 30.4688 20.3125C30.0383 20.3125 29.6875 19.9617 29.6875 19.5312V19.4062C29.6875 16.8906 27.6406 14.8438 25.125 14.8438H24.875C22.3594 14.8438 20.3125 16.8906 20.3125 19.4062C20.3125 21.4328 21.6734 23.2375 23.6211 23.7937L26.8078 24.7039C29.4234 25.4516 31.25 27.8727 31.25 30.5938C31.25 33.4664 29.2102 35.9852 26.4 36.5836L25.7812 36.7148V40.625C25.7812 41.0555 25.4305 41.4062 25 41.4062C24.5695 41.4062 24.2188 41.0555 24.2188 40.625V36.7148L23.6 36.5836C20.7898 35.9852 18.75 33.4664 18.75 30.5938V30.4688C18.75 30.0383 19.1008 29.6875 19.5312 29.6875C19.9617 29.6875 20.3125 30.0383 20.3125 30.4688V30.5938C20.3125 33.1094 22.3594 35.1562 24.875 35.1562H25.1242C27.6398 35.1562 29.6867 33.1094 29.6867 30.5938C29.6867 28.5672 28.3258 26.7625 26.3781 26.2062L23.1914 25.2961C20.5766 24.5484 18.75 22.1273 18.75 19.4062C18.75 16.5336 20.7898 14.0148 23.6 13.4164L24.2188 13.2852V9.375C24.2188 8.94453 24.5695 8.59375 25 8.59375C25.4305 8.59375 25.7812 8.94453 25.7812 9.375V13.2852L26.4 13.4164C29.2102 14.0148 31.25 16.5336 31.25 19.4062V19.5312ZM47.6562 14.0625H46.6586L44.0469 15.6297C43.2 16.1375 42.2305 16.4062 41.243 16.4062H32.1953C31.957 15.8508 31.6547 15.3266 31.2977 14.8438H39.0625V13.2812H29.7469C29.0344 12.7406 28.2266 12.3148 27.3438 12.0477V11.7188H39.0625V10.1562H27.3438V9.375C27.3438 9.1 27.2875 8.83906 27.2 8.59375H29.6875H39.0625V7.03125H29.6875C29.257 7.03125 28.9062 6.68047 28.9062 6.25C28.9062 5.81953 29.257 5.46875 29.6875 5.46875H35.9375H38.7391L39.4813 6.21094C40.5141 7.24375 41.8875 7.8125 43.3484 7.8125H44.5312V6.25H43.3477C42.3047 6.25 41.3234 5.84375 40.5852 5.10625L39.3859 3.90625H39.0625H35.9375C35.0758 3.90625 34.375 3.20547 34.375 2.34375H41.243C42.2305 2.34375 43.2 2.6125 44.0469 3.12031L46.6586 4.6875H47.6562V14.0625Z" fill="#0E3367"/>
<path id="Vector_2" d="M34.375 29.6875H42.1875V31.25H34.375V29.6875Z" fill="#0E3367"/>
<path id="Vector_3" d="M7.8125 18.75H15.625V20.3125H7.8125V18.75Z" fill="#0E3367"/>
<path id="Vector_4" d="M8.53003 23.8945L15.7488 20.9023L16.3472 22.3461L9.12847 25.3383L8.53003 23.8945Z" fill="#0E3367"/>
<path id="Vector_5" d="M8.52942 15.1729L9.12786 13.7291L16.3466 16.7213L15.7482 18.165L8.52942 15.1729Z" fill="#0E3367"/>
<path id="Vector_6" d="M33.6708 27.6533L40.8895 24.6611L41.488 26.1049L34.2692 29.0971L33.6708 27.6533Z" fill="#0E3367"/>
<path id="Vector_7" d="M33.6746 33.2871L34.273 31.8434L41.4918 34.8355L40.8933 36.2793L33.6746 33.2871Z" fill="#0E3367"/>
</g>
</g>
<defs>
<clipPath id="clip0_146_340">
<rect width="50" height="50" fill="white"/>
</clipPath>
</defs>
</svg>
