<svg width="98" height="82" viewBox="0 0 98 82" fill="none" xmlns="http://www.w3.org/2000/svg">
<g id="Vector">
<mask id="path-1-outside-1_146_497" maskUnits="userSpaceOnUse" x="0.161011" y="0" width="98" height="82" fill="black">
<rect fill="white" x="0.161011" width="98" height="82"/>
<path fill-rule="evenodd" clip-rule="evenodd" d="M93.7785 1.96774H38.6581C38.4983 1.96774 38.3691 2.09725 38.3691 2.25701C38.3691 2.408 38.4851 2.5336 38.6356 2.5454L93.6023 6.85939C94.9131 6.96229 96.0336 5.92487 96.0336 4.60823V4.22581C96.0336 2.97871 95.024 1.96774 93.7785 1.96774ZM38.6581 1C37.9648 1 37.4027 1.56278 37.4027 2.25701C37.4027 2.91315 37.9065 3.45891 38.5599 3.51018L75.7753 6.43097L41.3767 16.7602C40.7189 16.9577 40.2405 17.6726 40.3085 18.3569C40.3726 19.0034 40.9035 19.3977 41.5281 19.2626L93.6233 7.99161C93.8243 7.9481 94.0205 7.88542 94.2096 7.80587C95.7726 7.59671 97 6.25545 97 4.60823V4.22581C97 2.94897 96.2591 1.84539 95.1844 1.32258H95.1963C95.0974 1.27391 94.9947 1.23181 94.8887 1.19661C94.5424 1.06943 94.1687 1 93.7785 1H38.6581ZM90.8186 7.61165L78.3934 6.63648L41.4721 17.7232C41.3255 17.7672 41.2192 17.9265 41.234 18.0789C41.2485 18.223 41.3667 18.3108 41.5059 18.2807L90.8186 7.61165ZM43.0019 11.28C42.4756 10.8967 41.7768 10.5245 40.9144 10.1874C38.662 9.30726 35.4843 8.74194 31.9262 8.74194C28.3679 8.74194 25.1904 9.30726 22.938 10.1874C22.0754 10.5245 21.3769 10.8967 20.8503 11.28C21.3784 11.6783 22.0802 12.0647 22.9475 12.4143C25.1969 13.3207 28.371 13.9032 31.9262 13.9032C35.4814 13.9032 38.6555 13.3207 40.9048 12.4143C41.7723 12.0647 42.4739 11.6783 43.0019 11.28ZM43.7313 11.9383C41.5584 13.6777 37.0883 14.871 31.9262 14.871C26.7642 14.871 22.2939 13.6777 20.1212 11.9383C19.7979 12.3194 19.6845 12.6554 19.6845 12.9355C19.6845 13.2871 19.8631 13.7266 20.4114 14.2332C20.9607 14.7407 21.8088 15.2423 22.938 15.6835C25.1904 16.5637 28.3679 17.129 31.9262 17.129C35.4843 17.129 38.662 16.5637 40.9144 15.6835C42.0436 15.2423 42.8915 14.7407 43.441 14.2332C43.9893 13.7266 44.1678 13.2871 44.1678 12.9355C44.1678 12.6554 44.0544 12.3194 43.7313 11.9383ZM43.72 10.6095C44.047 10.2127 44.1678 9.85571 44.1678 9.54839C44.1678 9.1631 43.9781 8.69974 43.4301 8.17771C42.8799 7.65348 42.0323 7.13681 40.9048 6.68252C38.6555 5.77603 35.4814 5.19355 31.9262 5.19355C28.371 5.19355 25.1969 5.77603 22.9475 6.68252C21.8202 7.13681 20.9725 7.65348 20.4223 8.17771C19.8743 8.69974 19.6845 9.1631 19.6845 9.54839C19.6845 9.85571 19.8053 10.2127 20.1322 10.6095C22.3089 8.92745 26.7729 7.77419 31.9262 7.77419C37.0796 7.77419 41.5433 8.92745 43.72 10.6095ZM45.1342 12.9355C45.1342 15.786 39.2209 18.0968 31.9262 18.0968C24.6316 18.0968 18.7181 15.786 18.7181 12.9355V9.3871C18.7181 9.33781 18.7255 9.29026 18.7391 9.24545C19.1288 6.44681 24.8838 4.22581 31.9262 4.22581C38.9683 4.22581 44.7235 6.44684 45.1133 9.24545C45.1268 9.29026 45.1342 9.33781 45.1342 9.3871V12.9355ZM22.2617 32.5019V21.9614C25.4019 20.6353 33.2225 18.9386 41.5906 21.9821V32.5196C32.4557 30.321 25.873 31.4991 22.2617 32.5019ZM22.2617 33.5071V34.5281L23.2697 35.6813C23.4372 35.8732 23.4276 36.1619 23.2477 36.3423L22.5839 37.0071V38.5806C22.5839 38.709 22.533 38.8323 22.4424 38.9229L20.5102 40.8574L20.5042 40.8636C20.4594 40.9071 20.4084 40.94 20.3541 40.9626C20.2968 40.9868 20.2338 41 20.1678 41H18.8353L18.1715 41.6648C17.9916 41.8448 17.703 41.8545 17.5116 41.6868L16.3596 40.6774H15.3199C13.0416 49.9729 14.3223 56.569 15.3117 60.0323H16.4026L17.5736 59.2994C17.7644 59.18 18.0123 59.2081 18.1715 59.3674L18.8353 60.0323H20.2859C20.3992 60.0223 20.5165 60.0516 20.6153 60.1245L21.9129 61.081C22.0366 61.1719 22.1097 61.3168 22.1097 61.4706V63.3394L22.7759 63.9939C22.9388 64.1542 22.9676 64.4065 22.845 64.5994L22.1097 65.7555V66.6745C25.5238 67.67 32.1649 69.0245 41.5803 66.7129V65.7987L40.5675 64.6613C40.3961 64.4687 40.4058 64.1748 40.5897 63.9939L41.2559 63.3394V61.7894C41.2559 61.6426 41.3226 61.5039 41.4366 61.4119L43.221 59.9774C43.3328 59.8874 43.4726 59.8555 43.604 59.8777L43.6127 59.8765C43.6169 59.8758 43.6208 59.8752 43.6247 59.8748L44.7486 59.7339L45.4367 59.0448C45.5959 58.8855 45.8439 58.8574 46.0346 58.9768L47.2057 59.7097H48.2597C50.5383 50.4142 49.2574 43.8181 48.2681 40.3548H47.2488L46.0968 41.3642C45.9051 41.5319 45.6168 41.5223 45.4367 41.3423L44.7731 40.6774H43.3624C43.2178 40.6774 43.088 40.6139 42.9994 40.5129L41.7127 39.0636C41.6341 38.9748 41.5906 38.8603 41.5906 38.7419V37.0071L40.9267 36.3423C40.7675 36.1829 40.7395 35.9348 40.8587 35.7435L41.5906 34.571V33.5155C32.3076 31.2341 25.7202 32.5166 22.2617 33.5071ZM3.80994 40.6774H14.3254C12.1297 49.8245 13.3062 56.4161 14.3076 60.0323H3.83062C0.791226 51.6529 2.48559 43.8219 3.80994 40.6774ZM49.2722 40.3548C50.2735 43.971 51.4499 50.5626 49.2545 59.7097H59.7778C62.8169 51.3303 61.1228 43.4994 59.7984 40.3548H49.2722ZM22.1097 78.1852V67.6813C25.6853 68.6923 32.3211 69.9352 41.5803 67.7087V78.2058C38.4159 79.5168 30.5384 81.1932 22.1097 78.1852ZM19.9676 40.0323L21.6174 38.3803V36.8065C21.6174 36.6781 21.6684 36.5552 21.759 36.4645L22.2447 35.9781L21.4149 35.0284C21.3378 34.9403 21.2953 34.8271 21.2953 34.7097V21.6452C21.2953 21.4557 21.4058 21.2836 21.578 21.205C24.7327 19.764 33.211 17.7841 42.2443 21.1924C42.4324 21.2635 42.5571 21.4438 42.5571 21.6452V34.7097C42.5571 34.8003 42.5316 34.8894 42.4836 34.9661L41.8818 35.93L42.4156 36.4645C42.5062 36.5552 42.5571 36.6781 42.5571 36.8065V38.5581L43.5796 39.7097H44.9732C45.1014 39.7097 45.2241 39.7607 45.315 39.8513L45.8004 40.3377L46.7488 39.5068C46.8371 39.4297 46.9502 39.3871 47.0671 39.3871H60.1141C60.3032 39.3871 60.4752 39.4977 60.5538 39.67C61.9929 42.829 63.9702 51.319 60.5664 60.3642C60.4952 60.5526 60.3151 60.6774 60.1141 60.6774H47.0671C46.9766 60.6774 46.8877 60.6519 46.811 60.6039L45.8484 60.0013L45.315 60.5358C45.2389 60.6119 45.1397 60.6603 45.0331 60.6736L43.7445 60.8348C43.7274 60.8371 43.7103 60.8384 43.6936 60.8387L42.2223 62.0213V63.5426C42.2223 63.6723 42.1705 63.7968 42.0777 63.8877L41.5955 64.3616L42.4243 65.2923C42.5033 65.381 42.5468 65.4955 42.5468 65.6145V78.5245C42.5468 78.7152 42.435 78.8881 42.261 78.9661C39.0859 80.389 30.5519 82.3452 21.4589 78.9781C21.2692 78.9081 21.1432 78.7268 21.1432 78.5245V65.6145C21.1432 65.5223 21.1695 65.4323 21.2189 65.3545L21.8195 64.41L21.288 63.8877C21.1954 63.7968 21.1432 63.6723 21.1432 63.5426V61.7152L20.1728 61H18.6351C18.507 61 18.3841 60.949 18.2934 60.8584L17.7599 60.3239L16.7973 60.9265C16.7205 60.9745 16.6317 61 16.5412 61H3.49419C3.29304 61 3.11293 60.8752 3.042 60.6868C-0.361796 51.6416 1.61553 43.1516 3.05454 39.9926C3.13308 39.8203 3.30492 39.7097 3.49419 39.7097H16.5412C16.6582 39.7097 16.7713 39.7523 16.8594 39.8294L17.8077 40.6603L18.2934 40.1739C18.3841 40.0832 18.507 40.0323 18.6351 40.0323H19.9676ZM31.9262 59.3871C37.2635 59.3871 41.5906 55.0545 41.5906 49.7097C41.5906 44.3648 37.2635 40.0323 31.9262 40.0323C26.5887 40.0323 22.2617 44.3648 22.2617 49.7097C22.2617 55.0545 26.5887 59.3871 31.9262 59.3871ZM31.9262 60.3548C37.7973 60.3548 42.5571 55.5887 42.5571 49.7097C42.5571 43.8306 37.7973 39.0645 31.9262 39.0645C26.0549 39.0645 21.2953 43.8306 21.2953 49.7097C21.2953 55.5887 26.0549 60.3548 31.9262 60.3548Z"/>
</mask>
<path fill-rule="evenodd" clip-rule="evenodd" d="M93.7785 1.96774H38.6581C38.4983 1.96774 38.3691 2.09725 38.3691 2.25701C38.3691 2.408 38.4851 2.5336 38.6356 2.5454L93.6023 6.85939C94.9131 6.96229 96.0336 5.92487 96.0336 4.60823V4.22581C96.0336 2.97871 95.024 1.96774 93.7785 1.96774ZM38.6581 1C37.9648 1 37.4027 1.56278 37.4027 2.25701C37.4027 2.91315 37.9065 3.45891 38.5599 3.51018L75.7753 6.43097L41.3767 16.7602C40.7189 16.9577 40.2405 17.6726 40.3085 18.3569C40.3726 19.0034 40.9035 19.3977 41.5281 19.2626L93.6233 7.99161C93.8243 7.9481 94.0205 7.88542 94.2096 7.80587C95.7726 7.59671 97 6.25545 97 4.60823V4.22581C97 2.94897 96.2591 1.84539 95.1844 1.32258H95.1963C95.0974 1.27391 94.9947 1.23181 94.8887 1.19661C94.5424 1.06943 94.1687 1 93.7785 1H38.6581ZM90.8186 7.61165L78.3934 6.63648L41.4721 17.7232C41.3255 17.7672 41.2192 17.9265 41.234 18.0789C41.2485 18.223 41.3667 18.3108 41.5059 18.2807L90.8186 7.61165ZM43.0019 11.28C42.4756 10.8967 41.7768 10.5245 40.9144 10.1874C38.662 9.30726 35.4843 8.74194 31.9262 8.74194C28.3679 8.74194 25.1904 9.30726 22.938 10.1874C22.0754 10.5245 21.3769 10.8967 20.8503 11.28C21.3784 11.6783 22.0802 12.0647 22.9475 12.4143C25.1969 13.3207 28.371 13.9032 31.9262 13.9032C35.4814 13.9032 38.6555 13.3207 40.9048 12.4143C41.7723 12.0647 42.4739 11.6783 43.0019 11.28ZM43.7313 11.9383C41.5584 13.6777 37.0883 14.871 31.9262 14.871C26.7642 14.871 22.2939 13.6777 20.1212 11.9383C19.7979 12.3194 19.6845 12.6554 19.6845 12.9355C19.6845 13.2871 19.8631 13.7266 20.4114 14.2332C20.9607 14.7407 21.8088 15.2423 22.938 15.6835C25.1904 16.5637 28.3679 17.129 31.9262 17.129C35.4843 17.129 38.662 16.5637 40.9144 15.6835C42.0436 15.2423 42.8915 14.7407 43.441 14.2332C43.9893 13.7266 44.1678 13.2871 44.1678 12.9355C44.1678 12.6554 44.0544 12.3194 43.7313 11.9383ZM43.72 10.6095C44.047 10.2127 44.1678 9.85571 44.1678 9.54839C44.1678 9.1631 43.9781 8.69974 43.4301 8.17771C42.8799 7.65348 42.0323 7.13681 40.9048 6.68252C38.6555 5.77603 35.4814 5.19355 31.9262 5.19355C28.371 5.19355 25.1969 5.77603 22.9475 6.68252C21.8202 7.13681 20.9725 7.65348 20.4223 8.17771C19.8743 8.69974 19.6845 9.1631 19.6845 9.54839C19.6845 9.85571 19.8053 10.2127 20.1322 10.6095C22.3089 8.92745 26.7729 7.77419 31.9262 7.77419C37.0796 7.77419 41.5433 8.92745 43.72 10.6095ZM45.1342 12.9355C45.1342 15.786 39.2209 18.0968 31.9262 18.0968C24.6316 18.0968 18.7181 15.786 18.7181 12.9355V9.3871C18.7181 9.33781 18.7255 9.29026 18.7391 9.24545C19.1288 6.44681 24.8838 4.22581 31.9262 4.22581C38.9683 4.22581 44.7235 6.44684 45.1133 9.24545C45.1268 9.29026 45.1342 9.33781 45.1342 9.3871V12.9355ZM22.2617 32.5019V21.9614C25.4019 20.6353 33.2225 18.9386 41.5906 21.9821V32.5196C32.4557 30.321 25.873 31.4991 22.2617 32.5019ZM22.2617 33.5071V34.5281L23.2697 35.6813C23.4372 35.8732 23.4276 36.1619 23.2477 36.3423L22.5839 37.0071V38.5806C22.5839 38.709 22.533 38.8323 22.4424 38.9229L20.5102 40.8574L20.5042 40.8636C20.4594 40.9071 20.4084 40.94 20.3541 40.9626C20.2968 40.9868 20.2338 41 20.1678 41H18.8353L18.1715 41.6648C17.9916 41.8448 17.703 41.8545 17.5116 41.6868L16.3596 40.6774H15.3199C13.0416 49.9729 14.3223 56.569 15.3117 60.0323H16.4026L17.5736 59.2994C17.7644 59.18 18.0123 59.2081 18.1715 59.3674L18.8353 60.0323H20.2859C20.3992 60.0223 20.5165 60.0516 20.6153 60.1245L21.9129 61.081C22.0366 61.1719 22.1097 61.3168 22.1097 61.4706V63.3394L22.7759 63.9939C22.9388 64.1542 22.9676 64.4065 22.845 64.5994L22.1097 65.7555V66.6745C25.5238 67.67 32.1649 69.0245 41.5803 66.7129V65.7987L40.5675 64.6613C40.3961 64.4687 40.4058 64.1748 40.5897 63.9939L41.2559 63.3394V61.7894C41.2559 61.6426 41.3226 61.5039 41.4366 61.4119L43.221 59.9774C43.3328 59.8874 43.4726 59.8555 43.604 59.8777L43.6127 59.8765C43.6169 59.8758 43.6208 59.8752 43.6247 59.8748L44.7486 59.7339L45.4367 59.0448C45.5959 58.8855 45.8439 58.8574 46.0346 58.9768L47.2057 59.7097H48.2597C50.5383 50.4142 49.2574 43.8181 48.2681 40.3548H47.2488L46.0968 41.3642C45.9051 41.5319 45.6168 41.5223 45.4367 41.3423L44.7731 40.6774H43.3624C43.2178 40.6774 43.088 40.6139 42.9994 40.5129L41.7127 39.0636C41.6341 38.9748 41.5906 38.8603 41.5906 38.7419V37.0071L40.9267 36.3423C40.7675 36.1829 40.7395 35.9348 40.8587 35.7435L41.5906 34.571V33.5155C32.3076 31.2341 25.7202 32.5166 22.2617 33.5071ZM3.80994 40.6774H14.3254C12.1297 49.8245 13.3062 56.4161 14.3076 60.0323H3.83062C0.791226 51.6529 2.48559 43.8219 3.80994 40.6774ZM49.2722 40.3548C50.2735 43.971 51.4499 50.5626 49.2545 59.7097H59.7778C62.8169 51.3303 61.1228 43.4994 59.7984 40.3548H49.2722ZM22.1097 78.1852V67.6813C25.6853 68.6923 32.3211 69.9352 41.5803 67.7087V78.2058C38.4159 79.5168 30.5384 81.1932 22.1097 78.1852ZM19.9676 40.0323L21.6174 38.3803V36.8065C21.6174 36.6781 21.6684 36.5552 21.759 36.4645L22.2447 35.9781L21.4149 35.0284C21.3378 34.9403 21.2953 34.8271 21.2953 34.7097V21.6452C21.2953 21.4557 21.4058 21.2836 21.578 21.205C24.7327 19.764 33.211 17.7841 42.2443 21.1924C42.4324 21.2635 42.5571 21.4438 42.5571 21.6452V34.7097C42.5571 34.8003 42.5316 34.8894 42.4836 34.9661L41.8818 35.93L42.4156 36.4645C42.5062 36.5552 42.5571 36.6781 42.5571 36.8065V38.5581L43.5796 39.7097H44.9732C45.1014 39.7097 45.2241 39.7607 45.315 39.8513L45.8004 40.3377L46.7488 39.5068C46.8371 39.4297 46.9502 39.3871 47.0671 39.3871H60.1141C60.3032 39.3871 60.4752 39.4977 60.5538 39.67C61.9929 42.829 63.9702 51.319 60.5664 60.3642C60.4952 60.5526 60.3151 60.6774 60.1141 60.6774H47.0671C46.9766 60.6774 46.8877 60.6519 46.811 60.6039L45.8484 60.0013L45.315 60.5358C45.2389 60.6119 45.1397 60.6603 45.0331 60.6736L43.7445 60.8348C43.7274 60.8371 43.7103 60.8384 43.6936 60.8387L42.2223 62.0213V63.5426C42.2223 63.6723 42.1705 63.7968 42.0777 63.8877L41.5955 64.3616L42.4243 65.2923C42.5033 65.381 42.5468 65.4955 42.5468 65.6145V78.5245C42.5468 78.7152 42.435 78.8881 42.261 78.9661C39.0859 80.389 30.5519 82.3452 21.4589 78.9781C21.2692 78.9081 21.1432 78.7268 21.1432 78.5245V65.6145C21.1432 65.5223 21.1695 65.4323 21.2189 65.3545L21.8195 64.41L21.288 63.8877C21.1954 63.7968 21.1432 63.6723 21.1432 63.5426V61.7152L20.1728 61H18.6351C18.507 61 18.3841 60.949 18.2934 60.8584L17.7599 60.3239L16.7973 60.9265C16.7205 60.9745 16.6317 61 16.5412 61H3.49419C3.29304 61 3.11293 60.8752 3.042 60.6868C-0.361796 51.6416 1.61553 43.1516 3.05454 39.9926C3.13308 39.8203 3.30492 39.7097 3.49419 39.7097H16.5412C16.6582 39.7097 16.7713 39.7523 16.8594 39.8294L17.8077 40.6603L18.2934 40.1739C18.3841 40.0832 18.507 40.0323 18.6351 40.0323H19.9676ZM31.9262 59.3871C37.2635 59.3871 41.5906 55.0545 41.5906 49.7097C41.5906 44.3648 37.2635 40.0323 31.9262 40.0323C26.5887 40.0323 22.2617 44.3648 22.2617 49.7097C22.2617 55.0545 26.5887 59.3871 31.9262 59.3871ZM31.9262 60.3548C37.7973 60.3548 42.5571 55.5887 42.5571 49.7097C42.5571 43.8306 37.7973 39.0645 31.9262 39.0645C26.0549 39.0645 21.2953 43.8306 21.2953 49.7097C21.2953 55.5887 26.0549 60.3548 31.9262 60.3548Z" fill="#0E3367"/>
<path fill-rule="evenodd" clip-rule="evenodd" d="M93.7785 1.96774H38.6581C38.4983 1.96774 38.3691 2.09725 38.3691 2.25701C38.3691 2.408 38.4851 2.5336 38.6356 2.5454L93.6023 6.85939C94.9131 6.96229 96.0336 5.92487 96.0336 4.60823V4.22581C96.0336 2.97871 95.024 1.96774 93.7785 1.96774ZM38.6581 1C37.9648 1 37.4027 1.56278 37.4027 2.25701C37.4027 2.91315 37.9065 3.45891 38.5599 3.51018L75.7753 6.43097L41.3767 16.7602C40.7189 16.9577 40.2405 17.6726 40.3085 18.3569C40.3726 19.0034 40.9035 19.3977 41.5281 19.2626L93.6233 7.99161C93.8243 7.9481 94.0205 7.88542 94.2096 7.80587C95.7726 7.59671 97 6.25545 97 4.60823V4.22581C97 2.94897 96.2591 1.84539 95.1844 1.32258H95.1963C95.0974 1.27391 94.9947 1.23181 94.8887 1.19661C94.5424 1.06943 94.1687 1 93.7785 1H38.6581ZM90.8186 7.61165L78.3934 6.63648L41.4721 17.7232C41.3255 17.7672 41.2192 17.9265 41.234 18.0789C41.2485 18.223 41.3667 18.3108 41.5059 18.2807L90.8186 7.61165ZM43.0019 11.28C42.4756 10.8967 41.7768 10.5245 40.9144 10.1874C38.662 9.30726 35.4843 8.74194 31.9262 8.74194C28.3679 8.74194 25.1904 9.30726 22.938 10.1874C22.0754 10.5245 21.3769 10.8967 20.8503 11.28C21.3784 11.6783 22.0802 12.0647 22.9475 12.4143C25.1969 13.3207 28.371 13.9032 31.9262 13.9032C35.4814 13.9032 38.6555 13.3207 40.9048 12.4143C41.7723 12.0647 42.4739 11.6783 43.0019 11.28ZM43.7313 11.9383C41.5584 13.6777 37.0883 14.871 31.9262 14.871C26.7642 14.871 22.2939 13.6777 20.1212 11.9383C19.7979 12.3194 19.6845 12.6554 19.6845 12.9355C19.6845 13.2871 19.8631 13.7266 20.4114 14.2332C20.9607 14.7407 21.8088 15.2423 22.938 15.6835C25.1904 16.5637 28.3679 17.129 31.9262 17.129C35.4843 17.129 38.662 16.5637 40.9144 15.6835C42.0436 15.2423 42.8915 14.7407 43.441 14.2332C43.9893 13.7266 44.1678 13.2871 44.1678 12.9355C44.1678 12.6554 44.0544 12.3194 43.7313 11.9383ZM43.72 10.6095C44.047 10.2127 44.1678 9.85571 44.1678 9.54839C44.1678 9.1631 43.9781 8.69974 43.4301 8.17771C42.8799 7.65348 42.0323 7.13681 40.9048 6.68252C38.6555 5.77603 35.4814 5.19355 31.9262 5.19355C28.371 5.19355 25.1969 5.77603 22.9475 6.68252C21.8202 7.13681 20.9725 7.65348 20.4223 8.17771C19.8743 8.69974 19.6845 9.1631 19.6845 9.54839C19.6845 9.85571 19.8053 10.2127 20.1322 10.6095C22.3089 8.92745 26.7729 7.77419 31.9262 7.77419C37.0796 7.77419 41.5433 8.92745 43.72 10.6095ZM45.1342 12.9355C45.1342 15.786 39.2209 18.0968 31.9262 18.0968C24.6316 18.0968 18.7181 15.786 18.7181 12.9355V9.3871C18.7181 9.33781 18.7255 9.29026 18.7391 9.24545C19.1288 6.44681 24.8838 4.22581 31.9262 4.22581C38.9683 4.22581 44.7235 6.44684 45.1133 9.24545C45.1268 9.29026 45.1342 9.33781 45.1342 9.3871V12.9355ZM22.2617 32.5019V21.9614C25.4019 20.6353 33.2225 18.9386 41.5906 21.9821V32.5196C32.4557 30.321 25.873 31.4991 22.2617 32.5019ZM22.2617 33.5071V34.5281L23.2697 35.6813C23.4372 35.8732 23.4276 36.1619 23.2477 36.3423L22.5839 37.0071V38.5806C22.5839 38.709 22.533 38.8323 22.4424 38.9229L20.5102 40.8574L20.5042 40.8636C20.4594 40.9071 20.4084 40.94 20.3541 40.9626C20.2968 40.9868 20.2338 41 20.1678 41H18.8353L18.1715 41.6648C17.9916 41.8448 17.703 41.8545 17.5116 41.6868L16.3596 40.6774H15.3199C13.0416 49.9729 14.3223 56.569 15.3117 60.0323H16.4026L17.5736 59.2994C17.7644 59.18 18.0123 59.2081 18.1715 59.3674L18.8353 60.0323H20.2859C20.3992 60.0223 20.5165 60.0516 20.6153 60.1245L21.9129 61.081C22.0366 61.1719 22.1097 61.3168 22.1097 61.4706V63.3394L22.7759 63.9939C22.9388 64.1542 22.9676 64.4065 22.845 64.5994L22.1097 65.7555V66.6745C25.5238 67.67 32.1649 69.0245 41.5803 66.7129V65.7987L40.5675 64.6613C40.3961 64.4687 40.4058 64.1748 40.5897 63.9939L41.2559 63.3394V61.7894C41.2559 61.6426 41.3226 61.5039 41.4366 61.4119L43.221 59.9774C43.3328 59.8874 43.4726 59.8555 43.604 59.8777L43.6127 59.8765C43.6169 59.8758 43.6208 59.8752 43.6247 59.8748L44.7486 59.7339L45.4367 59.0448C45.5959 58.8855 45.8439 58.8574 46.0346 58.9768L47.2057 59.7097H48.2597C50.5383 50.4142 49.2574 43.8181 48.2681 40.3548H47.2488L46.0968 41.3642C45.9051 41.5319 45.6168 41.5223 45.4367 41.3423L44.7731 40.6774H43.3624C43.2178 40.6774 43.088 40.6139 42.9994 40.5129L41.7127 39.0636C41.6341 38.9748 41.5906 38.8603 41.5906 38.7419V37.0071L40.9267 36.3423C40.7675 36.1829 40.7395 35.9348 40.8587 35.7435L41.5906 34.571V33.5155C32.3076 31.2341 25.7202 32.5166 22.2617 33.5071ZM3.80994 40.6774H14.3254C12.1297 49.8245 13.3062 56.4161 14.3076 60.0323H3.83062C0.791226 51.6529 2.48559 43.8219 3.80994 40.6774ZM49.2722 40.3548C50.2735 43.971 51.4499 50.5626 49.2545 59.7097H59.7778C62.8169 51.3303 61.1228 43.4994 59.7984 40.3548H49.2722ZM22.1097 78.1852V67.6813C25.6853 68.6923 32.3211 69.9352 41.5803 67.7087V78.2058C38.4159 79.5168 30.5384 81.1932 22.1097 78.1852ZM19.9676 40.0323L21.6174 38.3803V36.8065C21.6174 36.6781 21.6684 36.5552 21.759 36.4645L22.2447 35.9781L21.4149 35.0284C21.3378 34.9403 21.2953 34.8271 21.2953 34.7097V21.6452C21.2953 21.4557 21.4058 21.2836 21.578 21.205C24.7327 19.764 33.211 17.7841 42.2443 21.1924C42.4324 21.2635 42.5571 21.4438 42.5571 21.6452V34.7097C42.5571 34.8003 42.5316 34.8894 42.4836 34.9661L41.8818 35.93L42.4156 36.4645C42.5062 36.5552 42.5571 36.6781 42.5571 36.8065V38.5581L43.5796 39.7097H44.9732C45.1014 39.7097 45.2241 39.7607 45.315 39.8513L45.8004 40.3377L46.7488 39.5068C46.8371 39.4297 46.9502 39.3871 47.0671 39.3871H60.1141C60.3032 39.3871 60.4752 39.4977 60.5538 39.67C61.9929 42.829 63.9702 51.319 60.5664 60.3642C60.4952 60.5526 60.3151 60.6774 60.1141 60.6774H47.0671C46.9766 60.6774 46.8877 60.6519 46.811 60.6039L45.8484 60.0013L45.315 60.5358C45.2389 60.6119 45.1397 60.6603 45.0331 60.6736L43.7445 60.8348C43.7274 60.8371 43.7103 60.8384 43.6936 60.8387L42.2223 62.0213V63.5426C42.2223 63.6723 42.1705 63.7968 42.0777 63.8877L41.5955 64.3616L42.4243 65.2923C42.5033 65.381 42.5468 65.4955 42.5468 65.6145V78.5245C42.5468 78.7152 42.435 78.8881 42.261 78.9661C39.0859 80.389 30.5519 82.3452 21.4589 78.9781C21.2692 78.9081 21.1432 78.7268 21.1432 78.5245V65.6145C21.1432 65.5223 21.1695 65.4323 21.2189 65.3545L21.8195 64.41L21.288 63.8877C21.1954 63.7968 21.1432 63.6723 21.1432 63.5426V61.7152L20.1728 61H18.6351C18.507 61 18.3841 60.949 18.2934 60.8584L17.7599 60.3239L16.7973 60.9265C16.7205 60.9745 16.6317 61 16.5412 61H3.49419C3.29304 61 3.11293 60.8752 3.042 60.6868C-0.361796 51.6416 1.61553 43.1516 3.05454 39.9926C3.13308 39.8203 3.30492 39.7097 3.49419 39.7097H16.5412C16.6582 39.7097 16.7713 39.7523 16.8594 39.8294L17.8077 40.6603L18.2934 40.1739C18.3841 40.0832 18.507 40.0323 18.6351 40.0323H19.9676ZM31.9262 59.3871C37.2635 59.3871 41.5906 55.0545 41.5906 49.7097C41.5906 44.3648 37.2635 40.0323 31.9262 40.0323C26.5887 40.0323 22.2617 44.3648 22.2617 49.7097C22.2617 55.0545 26.5887 59.3871 31.9262 59.3871ZM31.9262 60.3548C37.7973 60.3548 42.5571 55.5887 42.5571 49.7097C42.5571 43.8306 37.7973 39.0645 31.9262 39.0645C26.0549 39.0645 21.2953 43.8306 21.2953 49.7097C21.2953 55.5887 26.0549 60.3548 31.9262 60.3548Z" stroke="#0E3367" stroke-width="0.6" mask="url(#path-1-outside-1_146_497)"/>
</g>
</svg>
