<svg width="26" height="25" viewBox="0 0 26 25" fill="none" xmlns="http://www.w3.org/2000/svg">
<g id="phone (1) 1" clip-path="url(#clip0_146_493)">
<g id="Group">
<path id="Vector" d="M18.5487 25C17.7417 25 16.9415 24.8573 16.1591 24.5731C12.7121 23.3209 9.5125 21.2814 6.90616 18.6751C4.29983 16.0688 2.26036 12.8692 1.00821 9.42217C0.605837 8.31441 0.487092 7.1709 0.655396 6.02329C0.813055 4.94833 1.22944 3.90477 1.85959 3.00539C2.49253 2.10206 3.33634 1.35073 4.29978 0.832632C5.32718 0.280164 6.44857 0 7.63289 0C8.00124 0 8.31958 0.257363 8.39678 0.617504L9.623 6.33988C9.67851 6.599 9.59888 6.86862 9.41153 7.05601L7.31625 9.15124C9.29283 13.0811 12.5001 16.2883 16.4299 18.2649L18.5252 16.1696C18.7126 15.9823 18.9822 15.9028 19.2413 15.9582L24.9637 17.1844C25.3239 17.2616 25.5812 17.5799 25.5812 17.9483C25.5812 19.1326 25.301 20.2541 24.7485 21.2815C24.2304 22.2449 23.4791 23.0887 22.5757 23.7216C21.6764 24.3518 20.6328 24.7682 19.5578 24.9258C19.221 24.9753 18.8842 25 18.5487 25ZM7.0087 1.59661C5.44651 1.76907 4.05994 2.58788 3.13918 3.90204C2.10377 5.37976 1.86233 7.19731 2.47676 8.88875C4.88408 15.5157 10.0656 20.6972 16.6925 23.1045C18.3839 23.719 20.2015 23.4776 21.6792 22.4421C22.9934 21.5213 23.8122 20.1348 23.9847 18.5726L19.3295 17.5751L17.1413 19.7633C16.9085 19.9961 16.5547 20.058 16.2568 19.9179C11.609 17.7344 7.84685 13.9723 5.66334 9.32452C5.52336 9.02653 5.58517 8.67274 5.81803 8.43994L8.00622 6.25175L7.0087 1.59661Z" fill="#0E3367"/>
</g>
</g>
<defs>
<clipPath id="clip0_146_493">
<rect width="25" height="25" fill="white" transform="translate(0.580811)"/>
</clipPath>
</defs>
</svg>
