<svg width="50" height="50" viewBox="0 0 50 50" fill="none" xmlns="http://www.w3.org/2000/svg">
<g id="repair 1" clip-path="url(#clip0_146_349)">
<path id="Vector" d="M33.9863 15.1514C33.4462 15.1514 33.0078 15.5878 33.0078 16.1275C33.0078 16.6669 33.4462 17.1041 33.9863 17.1041C34.5275 17.1041 34.9648 16.6669 34.9648 16.1275C34.9648 15.5878 34.5275 15.1514 33.9863 15.1514Z" fill="#0E3367"/>
<path id="Vector_2" d="M16.2078 32.8945C15.6666 32.8945 15.2294 33.3321 15.2294 33.8711C15.2294 34.4113 15.6666 34.8477 16.2078 34.8477C16.7479 34.8477 17.1863 34.4113 17.1863 33.8711C17.1863 33.3321 16.7479 32.8945 16.2078 32.8945Z" fill="#0E3367"/>
<path id="Vector_3" d="M48.9287 6.00786C48.5985 5.93119 48.2514 6.03075 48.0129 6.27108L43.9564 10.3517H42.0117L39.8709 8.13799V6.16999L43.8693 2.11992C44.1059 1.88036 44.2022 1.53589 44.1239 1.20821C44.0459 0.880907 43.8043 0.61693 43.4848 0.509355C42.4803 0.171373 41.4292 9.26482e-05 40.3602 9.26482e-05C37.1733 9.26482e-05 34.278 1.48325 32.4166 4.06923C30.6744 6.49004 30.1374 9.45673 30.9068 12.296L23.6994 19.4894L11.6917 7.47767V5.12018C11.6917 4.77724 11.5113 4.45909 11.2166 4.28286L4.29808 0.139329C3.91281 -0.0914601 3.42013 -0.0308064 3.10289 0.286195L0.335644 3.04766C0.0184049 3.36466 -0.0423674 3.85637 0.188491 4.24089L4.33936 11.1459C4.51594 11.44 4.83433 11.6197 5.17794 11.62L7.53927 11.6208L19.5481 23.6325L12.3682 30.7984C9.52336 30.0309 6.54933 30.5677 4.12264 32.3075C1.53313 34.1642 0.0482178 37.053 0.0482178 40.2337C0.0482178 41.3003 0.219833 42.3497 0.558476 43.3519C0.666644 43.6727 0.933813 43.9149 1.26405 43.9912C1.59466 44.0679 1.94133 43.9683 2.18022 43.728L6.2363 39.6478H8.19172L10.4197 41.8714V43.823L6.33147 47.8711C6.09067 48.1096 5.99091 48.4555 6.06774 48.7855C6.14418 49.1151 6.38689 49.3818 6.70833 49.4897C7.71242 49.8277 8.76389 49.999 9.83257 49.999C13.0195 49.999 15.9136 48.5166 17.7743 45.9321C19.5175 43.5102 20.0553 40.5423 19.2863 37.7031L25.0528 31.9478L26.3737 33.3799L25.7675 33.9845C25.3853 34.366 25.3853 34.9843 25.7675 35.3658C26.1498 35.7469 26.769 35.7469 27.1516 35.3658L27.7004 34.818L40.0942 48.2541C40.1033 48.264 40.1129 48.2736 40.1224 48.2831C42.4157 50.5719 46.1313 50.5727 48.4257 48.2827C50.7136 45.9981 50.7136 42.2807 48.4257 39.9961C48.4158 39.9862 48.4054 39.9766 48.3951 39.9671L34.9117 27.6212L35.4544 27.0795C35.8366 26.6984 35.8366 26.08 35.4544 25.6986C35.0722 25.3171 34.453 25.3171 34.0704 25.6986L33.4684 26.2998L32.0309 24.9829L37.8253 19.1999C38.649 19.4196 39.499 19.531 40.3602 19.531C45.7555 19.531 50.1445 15.1502 50.1445 9.76572C50.1445 8.69875 49.9729 7.64971 49.6343 6.64721C49.5261 6.32639 49.2589 6.08416 48.9287 6.00786ZM8.63776 9.95455C8.4543 9.77106 8.20548 9.6776 7.94557 9.6776L5.73254 9.67684L2.25972 3.88994L3.94644 2.20651L9.73472 5.67331V7.88202C9.73472 8.14066 9.83754 8.38862 10.0206 8.57172L22.3158 20.8707L20.9317 22.2516L8.63776 9.95455ZM33.5265 29.0036L47.0558 41.3911C48.5671 42.9155 48.5625 45.3836 47.0417 46.9022C45.5174 48.4235 43.0498 48.4281 41.5194 46.9156L29.0852 33.4356L33.5265 29.0036ZM32.0833 27.6818L27.7585 31.9974L26.4376 30.5654L30.6458 26.365L32.0833 27.6818ZM40.3602 17.5778C39.5044 17.5778 38.6628 17.4409 37.8593 17.1708C37.5073 17.0529 37.1182 17.1437 36.8553 17.4058C31.9499 22.3016 21.3801 32.8504 17.488 36.7353C17.225 36.9977 17.1337 37.3861 17.2525 37.7378C18.0659 40.1483 17.6768 42.7194 16.1846 44.7927C14.6967 46.8599 12.3812 48.0458 9.83257 48.0458C9.54629 48.0458 9.26154 48.0302 8.97946 48.0001L12.0873 44.9224C12.2723 44.7393 12.3766 44.4898 12.3766 44.2292V41.4666C12.3766 41.2076 12.2734 40.9593 12.0899 40.7762L9.28868 37.9804C9.10521 37.7973 8.85639 37.6943 8.59686 37.6943H5.82886C5.5678 37.6943 5.31783 37.7984 5.13399 37.9831L2.05065 41.0848C2.02007 40.8033 2.00478 40.5191 2.00478 40.2333C2.00478 37.6893 3.19271 35.3788 5.26432 33.8937C7.34128 32.4044 9.9178 32.0157 12.3334 32.8279C12.6854 32.9465 13.0745 32.8553 13.3375 32.5929C13.3914 32.5395 32.691 13.2772 32.7048 13.2634C32.9677 13.001 33.0587 12.613 32.9402 12.2613C32.1265 9.85079 32.5148 7.28045 34.0058 5.20868C35.4949 3.13959 37.8108 1.95322 40.3598 1.95322C40.6549 1.95322 40.948 1.96962 41.2385 2.00167L38.1953 5.08432C38.0149 5.26705 37.914 5.5131 37.914 5.76944V8.53205C37.914 8.78535 38.0122 9.02834 38.1884 9.2103L40.8918 12.0061C41.0761 12.1968 41.3302 12.3044 41.5959 12.3044H44.3639C44.6246 12.3044 44.8745 12.2006 45.0584 12.0156L48.1417 8.91428C48.1723 9.19581 48.1876 9.48 48.1876 9.76572C48.1876 14.0733 44.6762 17.5778 40.3602 17.5778Z" fill="#0E3367"/>
<path id="Vector_4" d="M30.5273 18.1992L18.283 30.4196C17.9011 30.8007 17.9011 31.419 18.283 31.8005C18.6652 32.182 19.2847 32.182 19.667 31.8005L31.9113 19.5801C32.2935 19.199 32.2935 18.5807 31.9113 18.1992C31.529 17.8177 30.9095 17.8177 30.5273 18.1992Z" fill="#0E3367"/>
<path id="Vector_5" d="M42.8919 44.1405C43.2742 44.5208 43.8937 44.5208 44.2759 44.1382C44.6574 43.7563 44.6562 43.138 44.2737 42.7572L35.454 33.9831C35.0714 33.6024 34.4514 33.6035 34.0704 33.9853C33.6885 34.3676 33.6897 34.9856 34.0723 35.3663L42.8919 44.1405Z" fill="#0E3367"/>
</g>
<defs>
<clipPath id="clip0_146_349">
<rect width="50" height="50" fill="white"/>
</clipPath>
</defs>
</svg>
