<svg width="52" height="52" viewBox="0 0 52 52" fill="none" xmlns="http://www.w3.org/2000/svg">
<g id="Vector">
<mask id="path-1-outside-1_146_372" maskUnits="userSpaceOnUse" x="0" y="0" width="52" height="52" fill="black">
<rect fill="white" width="52" height="52"/>
<path d="M26 12.9101C26.4045 12.9101 26.7324 12.5822 26.7324 12.1777V11.1027C26.7324 10.6982 26.4045 10.3703 26 10.3703C25.5955 10.3703 25.2676 10.6982 25.2676 11.1027V12.1777C25.2676 12.5822 25.5955 12.9101 26 12.9101Z"/>
<path d="M37.0125 14.9644C36.7264 14.6783 36.2626 14.6782 35.9767 14.9644L35.2166 15.7244C34.9304 16.0104 34.9304 16.4742 35.2165 16.7603C35.3595 16.9032 35.5469 16.9748 35.7344 16.9748C35.9218 16.9748 36.1093 16.9033 36.2523 16.7604L37.0125 16.0002C37.2984 15.7142 37.2984 15.2504 37.0125 14.9644Z"/>
<path d="M39.743 25.2679C39.3384 25.2679 39.0106 25.5959 39.0106 26.0003C39.0106 26.4048 39.3384 26.7328 39.743 26.7328H40.818C41.2226 26.7328 41.5504 26.4049 41.5504 26.0003C41.5504 25.5958 41.2226 25.2679 40.818 25.2679H39.743Z"/>
<path d="M36.1958 35.2165C35.9097 34.9306 35.446 34.9306 35.16 35.2165C34.8739 35.5027 34.8739 35.9663 35.16 36.2524L35.92 37.0124C36.0631 37.1554 36.2506 37.2269 36.438 37.2269C36.6254 37.2269 36.8129 37.1554 36.956 37.0124C37.242 36.7263 37.242 36.2626 36.956 35.9766L36.1958 35.2165Z"/>
<path d="M25.1878 39.7437V40.8187C25.1878 41.2233 25.5158 41.5511 25.9203 41.5511C26.3248 41.5511 26.6527 41.2233 26.6527 40.8187V39.7437C26.6527 39.3391 26.3249 39.0113 25.9203 39.0113C25.5157 39.0113 25.1878 39.3391 25.1878 39.7437Z"/>
<path d="M15.6681 35.1597L14.9079 35.9197C14.6219 36.2058 14.6219 36.6695 14.9079 36.9555C15.0509 37.0985 15.2384 37.17 15.4258 37.17C15.6132 37.17 15.8007 37.0985 15.9437 36.9556L16.7038 36.1955C16.9899 35.9095 16.9899 35.4457 16.7038 35.1598C16.4179 34.8737 15.9541 34.8738 15.6681 35.1597Z"/>
<path d="M11.1023 25.1874C10.6978 25.1874 10.3698 25.5154 10.3698 25.9199C10.3698 26.3244 10.6978 26.6523 11.1023 26.6523H12.1773C12.5818 26.6523 12.9097 26.3244 12.9097 25.9199C12.9097 25.5154 12.5818 25.1874 12.1773 25.1874H11.1023Z"/>
<path d="M16.7603 15.6679L16.0001 14.9077C15.714 14.6217 15.2504 14.6218 14.9643 14.9077C14.6783 15.1937 14.6784 15.6575 14.9643 15.9435L15.7245 16.7036C15.8675 16.8467 16.0549 16.9182 16.2423 16.9182C16.4297 16.9182 16.6172 16.8467 16.7603 16.7036C17.0463 16.4176 17.0462 15.9539 16.7603 15.6679Z"/>
<path d="M27.9627 27.8324L33.1797 30.5151C33.5416 30.7012 33.982 30.5563 34.166 30.1987C34.3511 29.8389 34.2093 29.3974 33.8496 29.2123L28.6344 26.5306C28.6689 26.3588 28.6873 26.1813 28.6873 25.9995C28.6873 24.7717 27.8593 23.7343 26.7325 23.4146V15.949C26.7325 15.5445 26.4046 15.2166 26.0001 15.2166C25.5956 15.2166 25.2677 15.5445 25.2677 15.949V23.4146C24.3739 23.6682 23.6687 24.3734 23.4151 25.2671H19.7797C19.3752 25.2671 19.0472 25.595 19.0472 25.9995C19.0472 26.404 19.3752 26.732 19.7797 26.732H23.4151C23.7348 27.8587 24.7722 28.6868 26.0001 28.6868C26.7739 28.6869 27.472 28.3577 27.9627 27.8324ZM26 27.2221C25.326 27.2221 24.7775 26.6738 24.7775 25.9996C24.7775 25.3256 25.3259 24.7772 26 24.7772C26.674 24.7772 27.2223 25.3255 27.2223 25.9996C27.2224 26.6738 26.674 27.2221 26 27.2221Z"/>
<path d="M44.9105 25.2659C45.3138 25.235 45.6157 24.8831 45.5849 24.4796C45.208 19.5584 43.0036 14.9902 39.3777 11.6163C35.7327 8.22466 30.9819 6.35679 26 6.35679C15.169 6.35679 6.35715 15.1685 6.35715 25.9997C6.35715 36.8308 15.169 45.6425 26 45.6425C36.2438 45.6425 44.8012 37.7513 45.5848 27.5199C45.6155 27.1166 45.3138 26.7646 44.9104 26.7336C44.5087 26.7035 44.1551 27.0046 44.1241 27.4081C43.4008 36.8551 35.4993 44.1777 26 44.1777C15.9766 44.1777 7.82199 36.0231 7.82199 25.9997C7.82199 15.9762 15.9766 7.82163 26 7.82163C30.6102 7.82163 35.0068 9.55015 38.3798 12.6887C41.7355 15.8112 43.7756 20.0383 44.1241 24.5916C44.1551 24.9947 44.5057 25.2974 44.9105 25.2659Z"/>
<path d="M43.6778 8.32236C38.9559 3.60039 32.6779 1 26.0001 1C21.2009 1 16.5388 2.36367 12.5175 4.94375C12.1771 5.16221 12.0782 5.61523 12.2966 5.95576C12.5151 6.29609 12.968 6.39502 13.3087 6.17666C17.0933 3.74834 21.482 2.46484 26.0001 2.46484C32.2866 2.46484 38.1967 4.91289 42.6419 9.35811C47.0872 13.8033 49.5352 19.7135 49.5352 26C49.5352 39.0071 39.009 49.5352 26.0001 49.5352C23.6755 49.5352 21.3765 49.1957 19.1669 48.5265C18.7796 48.4091 18.3708 48.6278 18.2536 49.0151C18.1363 49.4022 18.355 49.811 18.7421 49.9284C21.0897 50.6395 23.5316 51 26.0001 51C39.8168 51 51 39.8187 51 26C51 19.3223 48.3996 13.0442 43.6778 8.32236Z"/>
<path d="M16.5035 47.5394C7.97539 43.7737 2.46484 35.3191 2.46484 26.0004C2.46484 18.9586 5.58115 12.3439 11.0146 7.85207C11.3264 7.59436 11.3702 7.13274 11.1124 6.82092C10.8548 6.5093 10.3932 6.46545 10.0812 6.72307C4.31006 11.4941 1 18.5203 1 26.0004C1 35.8988 6.85322 44.8794 15.9117 48.8795C16.0079 48.922 16.1084 48.9421 16.2072 48.9421C16.4885 48.9421 16.7566 48.7792 16.8776 48.5053C17.041 48.1353 16.8735 47.7028 16.5035 47.5394Z"/>
</mask>
<path d="M26 12.9101C26.4045 12.9101 26.7324 12.5822 26.7324 12.1777V11.1027C26.7324 10.6982 26.4045 10.3703 26 10.3703C25.5955 10.3703 25.2676 10.6982 25.2676 11.1027V12.1777C25.2676 12.5822 25.5955 12.9101 26 12.9101Z" fill="#0E3367"/>
<path d="M37.0125 14.9644C36.7264 14.6783 36.2626 14.6782 35.9767 14.9644L35.2166 15.7244C34.9304 16.0104 34.9304 16.4742 35.2165 16.7603C35.3595 16.9032 35.5469 16.9748 35.7344 16.9748C35.9218 16.9748 36.1093 16.9033 36.2523 16.7604L37.0125 16.0002C37.2984 15.7142 37.2984 15.2504 37.0125 14.9644Z" fill="#0E3367"/>
<path d="M39.743 25.2679C39.3384 25.2679 39.0106 25.5959 39.0106 26.0003C39.0106 26.4048 39.3384 26.7328 39.743 26.7328H40.818C41.2226 26.7328 41.5504 26.4049 41.5504 26.0003C41.5504 25.5958 41.2226 25.2679 40.818 25.2679H39.743Z" fill="#0E3367"/>
<path d="M36.1958 35.2165C35.9097 34.9306 35.446 34.9306 35.16 35.2165C34.8739 35.5027 34.8739 35.9663 35.16 36.2524L35.92 37.0124C36.0631 37.1554 36.2506 37.2269 36.438 37.2269C36.6254 37.2269 36.8129 37.1554 36.956 37.0124C37.242 36.7263 37.242 36.2626 36.956 35.9766L36.1958 35.2165Z" fill="#0E3367"/>
<path d="M25.1878 39.7437V40.8187C25.1878 41.2233 25.5158 41.5511 25.9203 41.5511C26.3248 41.5511 26.6527 41.2233 26.6527 40.8187V39.7437C26.6527 39.3391 26.3249 39.0113 25.9203 39.0113C25.5157 39.0113 25.1878 39.3391 25.1878 39.7437Z" fill="#0E3367"/>
<path d="M15.6681 35.1597L14.9079 35.9197C14.6219 36.2058 14.6219 36.6695 14.9079 36.9555C15.0509 37.0985 15.2384 37.17 15.4258 37.17C15.6132 37.17 15.8007 37.0985 15.9437 36.9556L16.7038 36.1955C16.9899 35.9095 16.9899 35.4457 16.7038 35.1598C16.4179 34.8737 15.9541 34.8738 15.6681 35.1597Z" fill="#0E3367"/>
<path d="M11.1023 25.1874C10.6978 25.1874 10.3698 25.5154 10.3698 25.9199C10.3698 26.3244 10.6978 26.6523 11.1023 26.6523H12.1773C12.5818 26.6523 12.9097 26.3244 12.9097 25.9199C12.9097 25.5154 12.5818 25.1874 12.1773 25.1874H11.1023Z" fill="#0E3367"/>
<path d="M16.7603 15.6679L16.0001 14.9077C15.714 14.6217 15.2504 14.6218 14.9643 14.9077C14.6783 15.1937 14.6784 15.6575 14.9643 15.9435L15.7245 16.7036C15.8675 16.8467 16.0549 16.9182 16.2423 16.9182C16.4297 16.9182 16.6172 16.8467 16.7603 16.7036C17.0463 16.4176 17.0462 15.9539 16.7603 15.6679Z" fill="#0E3367"/>
<path d="M27.9627 27.8324L33.1797 30.5151C33.5416 30.7012 33.982 30.5563 34.166 30.1987C34.3511 29.8389 34.2093 29.3974 33.8496 29.2123L28.6344 26.5306C28.6689 26.3588 28.6873 26.1813 28.6873 25.9995C28.6873 24.7717 27.8593 23.7343 26.7325 23.4146V15.949C26.7325 15.5445 26.4046 15.2166 26.0001 15.2166C25.5956 15.2166 25.2677 15.5445 25.2677 15.949V23.4146C24.3739 23.6682 23.6687 24.3734 23.4151 25.2671H19.7797C19.3752 25.2671 19.0472 25.595 19.0472 25.9995C19.0472 26.404 19.3752 26.732 19.7797 26.732H23.4151C23.7348 27.8587 24.7722 28.6868 26.0001 28.6868C26.7739 28.6869 27.472 28.3577 27.9627 27.8324ZM26 27.2221C25.326 27.2221 24.7775 26.6738 24.7775 25.9996C24.7775 25.3256 25.3259 24.7772 26 24.7772C26.674 24.7772 27.2223 25.3255 27.2223 25.9996C27.2224 26.6738 26.674 27.2221 26 27.2221Z" fill="#0E3367"/>
<path d="M44.9105 25.2659C45.3138 25.235 45.6157 24.8831 45.5849 24.4796C45.208 19.5584 43.0036 14.9902 39.3777 11.6163C35.7327 8.22466 30.9819 6.35679 26 6.35679C15.169 6.35679 6.35715 15.1685 6.35715 25.9997C6.35715 36.8308 15.169 45.6425 26 45.6425C36.2438 45.6425 44.8012 37.7513 45.5848 27.5199C45.6155 27.1166 45.3138 26.7646 44.9104 26.7336C44.5087 26.7035 44.1551 27.0046 44.1241 27.4081C43.4008 36.8551 35.4993 44.1777 26 44.1777C15.9766 44.1777 7.82199 36.0231 7.82199 25.9997C7.82199 15.9762 15.9766 7.82163 26 7.82163C30.6102 7.82163 35.0068 9.55015 38.3798 12.6887C41.7355 15.8112 43.7756 20.0383 44.1241 24.5916C44.1551 24.9947 44.5057 25.2974 44.9105 25.2659Z" fill="#0E3367"/>
<path d="M43.6778 8.32236C38.9559 3.60039 32.6779 1 26.0001 1C21.2009 1 16.5388 2.36367 12.5175 4.94375C12.1771 5.16221 12.0782 5.61523 12.2966 5.95576C12.5151 6.29609 12.968 6.39502 13.3087 6.17666C17.0933 3.74834 21.482 2.46484 26.0001 2.46484C32.2866 2.46484 38.1967 4.91289 42.6419 9.35811C47.0872 13.8033 49.5352 19.7135 49.5352 26C49.5352 39.0071 39.009 49.5352 26.0001 49.5352C23.6755 49.5352 21.3765 49.1957 19.1669 48.5265C18.7796 48.4091 18.3708 48.6278 18.2536 49.0151C18.1363 49.4022 18.355 49.811 18.7421 49.9284C21.0897 50.6395 23.5316 51 26.0001 51C39.8168 51 51 39.8187 51 26C51 19.3223 48.3996 13.0442 43.6778 8.32236Z" fill="#0E3367"/>
<path d="M16.5035 47.5394C7.97539 43.7737 2.46484 35.3191 2.46484 26.0004C2.46484 18.9586 5.58115 12.3439 11.0146 7.85207C11.3264 7.59436 11.3702 7.13274 11.1124 6.82092C10.8548 6.5093 10.3932 6.46545 10.0812 6.72307C4.31006 11.4941 1 18.5203 1 26.0004C1 35.8988 6.85322 44.8794 15.9117 48.8795C16.0079 48.922 16.1084 48.9421 16.2072 48.9421C16.4885 48.9421 16.7566 48.7792 16.8776 48.5053C17.041 48.1353 16.8735 47.7028 16.5035 47.5394Z" fill="#0E3367"/>
<path d="M26 12.9101C26.4045 12.9101 26.7324 12.5822 26.7324 12.1777V11.1027C26.7324 10.6982 26.4045 10.3703 26 10.3703C25.5955 10.3703 25.2676 10.6982 25.2676 11.1027V12.1777C25.2676 12.5822 25.5955 12.9101 26 12.9101Z" stroke="#0E3367" stroke-width="0.6" mask="url(#path-1-outside-1_146_372)"/>
<path d="M37.0125 14.9644C36.7264 14.6783 36.2626 14.6782 35.9767 14.9644L35.2166 15.7244C34.9304 16.0104 34.9304 16.4742 35.2165 16.7603C35.3595 16.9032 35.5469 16.9748 35.7344 16.9748C35.9218 16.9748 36.1093 16.9033 36.2523 16.7604L37.0125 16.0002C37.2984 15.7142 37.2984 15.2504 37.0125 14.9644Z" stroke="#0E3367" stroke-width="0.6" mask="url(#path-1-outside-1_146_372)"/>
<path d="M39.743 25.2679C39.3384 25.2679 39.0106 25.5959 39.0106 26.0003C39.0106 26.4048 39.3384 26.7328 39.743 26.7328H40.818C41.2226 26.7328 41.5504 26.4049 41.5504 26.0003C41.5504 25.5958 41.2226 25.2679 40.818 25.2679H39.743Z" stroke="#0E3367" stroke-width="0.6" mask="url(#path-1-outside-1_146_372)"/>
<path d="M36.1958 35.2165C35.9097 34.9306 35.446 34.9306 35.16 35.2165C34.8739 35.5027 34.8739 35.9663 35.16 36.2524L35.92 37.0124C36.0631 37.1554 36.2506 37.2269 36.438 37.2269C36.6254 37.2269 36.8129 37.1554 36.956 37.0124C37.242 36.7263 37.242 36.2626 36.956 35.9766L36.1958 35.2165Z" stroke="#0E3367" stroke-width="0.6" mask="url(#path-1-outside-1_146_372)"/>
<path d="M25.1878 39.7437V40.8187C25.1878 41.2233 25.5158 41.5511 25.9203 41.5511C26.3248 41.5511 26.6527 41.2233 26.6527 40.8187V39.7437C26.6527 39.3391 26.3249 39.0113 25.9203 39.0113C25.5157 39.0113 25.1878 39.3391 25.1878 39.7437Z" stroke="#0E3367" stroke-width="0.6" mask="url(#path-1-outside-1_146_372)"/>
<path d="M15.6681 35.1597L14.9079 35.9197C14.6219 36.2058 14.6219 36.6695 14.9079 36.9555C15.0509 37.0985 15.2384 37.17 15.4258 37.17C15.6132 37.17 15.8007 37.0985 15.9437 36.9556L16.7038 36.1955C16.9899 35.9095 16.9899 35.4457 16.7038 35.1598C16.4179 34.8737 15.9541 34.8738 15.6681 35.1597Z" stroke="#0E3367" stroke-width="0.6" mask="url(#path-1-outside-1_146_372)"/>
<path d="M11.1023 25.1874C10.6978 25.1874 10.3698 25.5154 10.3698 25.9199C10.3698 26.3244 10.6978 26.6523 11.1023 26.6523H12.1773C12.5818 26.6523 12.9097 26.3244 12.9097 25.9199C12.9097 25.5154 12.5818 25.1874 12.1773 25.1874H11.1023Z" stroke="#0E3367" stroke-width="0.6" mask="url(#path-1-outside-1_146_372)"/>
<path d="M16.7603 15.6679L16.0001 14.9077C15.714 14.6217 15.2504 14.6218 14.9643 14.9077C14.6783 15.1937 14.6784 15.6575 14.9643 15.9435L15.7245 16.7036C15.8675 16.8467 16.0549 16.9182 16.2423 16.9182C16.4297 16.9182 16.6172 16.8467 16.7603 16.7036C17.0463 16.4176 17.0462 15.9539 16.7603 15.6679Z" stroke="#0E3367" stroke-width="0.6" mask="url(#path-1-outside-1_146_372)"/>
<path d="M27.9627 27.8324L33.1797 30.5151C33.5416 30.7012 33.982 30.5563 34.166 30.1987C34.3511 29.8389 34.2093 29.3974 33.8496 29.2123L28.6344 26.5306C28.6689 26.3588 28.6873 26.1813 28.6873 25.9995C28.6873 24.7717 27.8593 23.7343 26.7325 23.4146V15.949C26.7325 15.5445 26.4046 15.2166 26.0001 15.2166C25.5956 15.2166 25.2677 15.5445 25.2677 15.949V23.4146C24.3739 23.6682 23.6687 24.3734 23.4151 25.2671H19.7797C19.3752 25.2671 19.0472 25.595 19.0472 25.9995C19.0472 26.404 19.3752 26.732 19.7797 26.732H23.4151C23.7348 27.8587 24.7722 28.6868 26.0001 28.6868C26.7739 28.6869 27.472 28.3577 27.9627 27.8324ZM26 27.2221C25.326 27.2221 24.7775 26.6738 24.7775 25.9996C24.7775 25.3256 25.3259 24.7772 26 24.7772C26.674 24.7772 27.2223 25.3255 27.2223 25.9996C27.2224 26.6738 26.674 27.2221 26 27.2221Z" stroke="#0E3367" stroke-width="0.6" mask="url(#path-1-outside-1_146_372)"/>
<path d="M44.9105 25.2659C45.3138 25.235 45.6157 24.8831 45.5849 24.4796C45.208 19.5584 43.0036 14.9902 39.3777 11.6163C35.7327 8.22466 30.9819 6.35679 26 6.35679C15.169 6.35679 6.35715 15.1685 6.35715 25.9997C6.35715 36.8308 15.169 45.6425 26 45.6425C36.2438 45.6425 44.8012 37.7513 45.5848 27.5199C45.6155 27.1166 45.3138 26.7646 44.9104 26.7336C44.5087 26.7035 44.1551 27.0046 44.1241 27.4081C43.4008 36.8551 35.4993 44.1777 26 44.1777C15.9766 44.1777 7.82199 36.0231 7.82199 25.9997C7.82199 15.9762 15.9766 7.82163 26 7.82163C30.6102 7.82163 35.0068 9.55015 38.3798 12.6887C41.7355 15.8112 43.7756 20.0383 44.1241 24.5916C44.1551 24.9947 44.5057 25.2974 44.9105 25.2659Z" stroke="#0E3367" stroke-width="0.6" mask="url(#path-1-outside-1_146_372)"/>
<path d="M43.6778 8.32236C38.9559 3.60039 32.6779 1 26.0001 1C21.2009 1 16.5388 2.36367 12.5175 4.94375C12.1771 5.16221 12.0782 5.61523 12.2966 5.95576C12.5151 6.29609 12.968 6.39502 13.3087 6.17666C17.0933 3.74834 21.482 2.46484 26.0001 2.46484C32.2866 2.46484 38.1967 4.91289 42.6419 9.35811C47.0872 13.8033 49.5352 19.7135 49.5352 26C49.5352 39.0071 39.009 49.5352 26.0001 49.5352C23.6755 49.5352 21.3765 49.1957 19.1669 48.5265C18.7796 48.4091 18.3708 48.6278 18.2536 49.0151C18.1363 49.4022 18.355 49.811 18.7421 49.9284C21.0897 50.6395 23.5316 51 26.0001 51C39.8168 51 51 39.8187 51 26C51 19.3223 48.3996 13.0442 43.6778 8.32236Z" stroke="#0E3367" stroke-width="0.6" mask="url(#path-1-outside-1_146_372)"/>
<path d="M16.5035 47.5394C7.97539 43.7737 2.46484 35.3191 2.46484 26.0004C2.46484 18.9586 5.58115 12.3439 11.0146 7.85207C11.3264 7.59436 11.3702 7.13274 11.1124 6.82092C10.8548 6.5093 10.3932 6.46545 10.0812 6.72307C4.31006 11.4941 1 18.5203 1 26.0004C1 35.8988 6.85322 44.8794 15.9117 48.8795C16.0079 48.922 16.1084 48.9421 16.2072 48.9421C16.4885 48.9421 16.7566 48.7792 16.8776 48.5053C17.041 48.1353 16.8735 47.7028 16.5035 47.5394Z" stroke="#0E3367" stroke-width="0.6" mask="url(#path-1-outside-1_146_372)"/>
</g>
</svg>
