<svg width="50" height="50" viewBox="0 0 50 50" fill="none" xmlns="http://www.w3.org/2000/svg">
<g id="vehicle 1">
<g id="configuration">
<path id="Vector" d="M12.5 21.875H18.75C18.9572 21.875 19.1559 21.7927 19.3024 21.6462C19.4489 21.4997 19.5312 21.301 19.5312 21.0938V17.1875H17.9688V20.3125H12.5V21.875Z" fill="#0E3367"/>
<path id="Vector_2" d="M25.7812 17.1875H24.2188V23.4375H25.7812V17.1875Z" fill="#0E3367"/>
<path id="Vector_3" d="M30.4688 17.1875V21.0938C30.4688 21.301 30.5511 21.4997 30.6976 21.6462C30.8441 21.7927 31.0428 21.875 31.25 21.875H37.5V20.3125H32.0312V17.1875H30.4688Z" fill="#0E3367"/>
<path id="Vector_4" d="M46.0938 23.4375C45.6107 23.4395 45.1401 23.5907 44.7463 23.8704C44.3525 24.1501 44.0548 24.5446 43.8938 25H40.625V11.7187C40.625 11.5115 40.5427 11.3128 40.3962 11.1663C40.2497 11.0198 40.051 10.9375 39.8438 10.9375H33.5938V12.5H39.0625V25.7812C39.0625 25.9884 39.1448 26.1872 39.2913 26.3337C39.4378 26.4802 39.6366 26.5625 39.8438 26.5625H43.8938C44.0377 26.9665 44.2899 27.3232 44.6228 27.5936C44.9558 27.864 45.3566 28.0377 45.7816 28.0957C46.2066 28.1537 46.6393 28.0937 47.0325 27.9224C47.4257 27.7511 47.7643 27.475 48.0112 27.1243C48.2581 26.7736 48.4039 26.3617 48.4325 25.9338C48.4612 25.5058 48.3717 25.0782 48.1738 24.6977C47.9759 24.3172 47.6772 23.9984 47.3104 23.7761C46.9435 23.5539 46.5227 23.4367 46.0938 23.4375ZM46.0938 26.5625C45.9392 26.5625 45.7882 26.5167 45.6597 26.4308C45.5312 26.345 45.4311 26.223 45.372 26.0802C45.3128 25.9375 45.2974 25.7804 45.3275 25.6288C45.3577 25.4773 45.4321 25.3381 45.5413 25.2288C45.6506 25.1195 45.7898 25.0451 45.9413 25.015C46.0929 24.9849 46.25 25.0003 46.3927 25.0595C46.5355 25.1186 46.6575 25.2187 46.7433 25.3472C46.8292 25.4757 46.875 25.6267 46.875 25.7812C46.875 25.9884 46.7927 26.1872 46.6462 26.3337C46.4997 26.4802 46.301 26.5625 46.0938 26.5625Z" fill="#0E3367"/>
<path id="Vector_5" d="M10.1562 26.5625C10.3634 26.5625 10.5621 26.4802 10.7086 26.3337C10.8551 26.1872 10.9374 25.9884 10.9374 25.7812V12.5H16.4062V10.9375H10.1562C9.94899 10.9375 9.75028 11.0198 9.60377 11.1663C9.45725 11.3128 9.37494 11.5115 9.37494 11.7187V25H6.10619C5.9219 24.4787 5.55926 24.0394 5.08238 23.7597C4.6055 23.4799 4.04507 23.3777 3.50015 23.4712C2.95523 23.5647 2.46091 23.8479 2.10455 24.2706C1.74819 24.6933 1.55273 25.2284 1.55273 25.7812C1.55273 26.3341 1.74819 26.8692 2.10455 27.2919C2.46091 27.7146 2.95523 27.9977 3.50015 28.0912C4.04507 28.1847 4.6055 28.0826 5.08238 27.8028C5.55926 27.5231 5.9219 27.0837 6.10619 26.5625H10.1562ZM3.90619 26.5625C3.75168 26.5625 3.60063 26.5167 3.47215 26.4308C3.34368 26.345 3.24354 26.223 3.18441 26.0802C3.12528 25.9375 3.10981 25.7804 3.13995 25.6288C3.1701 25.4773 3.24451 25.3381 3.35377 25.2288C3.46303 25.1195 3.60223 25.0451 3.75378 25.015C3.90533 24.9849 4.06241 25.0003 4.20516 25.0595C4.34792 25.1186 4.46993 25.2187 4.55578 25.3472C4.64162 25.4757 4.68744 25.6267 4.68744 25.7812C4.68744 25.9884 4.60513 26.1872 4.45862 26.3337C4.31211 26.4802 4.11339 26.5625 3.90619 26.5625Z" fill="#0E3367"/>
<path id="Vector_6" d="M46.0938 7.81248C46.5238 7.81426 46.9461 7.69766 47.3144 7.47544C47.6826 7.25323 47.9826 6.93397 48.1815 6.55263C48.3804 6.17129 48.4706 5.74257 48.442 5.31343C48.4135 4.88428 48.2675 4.47124 48.0199 4.11956C47.7723 3.76787 47.4327 3.49109 47.0383 3.31953C46.644 3.14797 46.21 3.08825 45.7839 3.14689C45.3578 3.20554 44.9561 3.38029 44.6227 3.65202C44.2893 3.92376 44.0371 4.28198 43.8937 4.68748H33.5938V6.24998H43.8937C44.0548 6.70538 44.3525 7.09991 44.7463 7.3796C45.1401 7.65929 45.6107 7.81047 46.0938 7.81248ZM46.0938 4.68748C46.2483 4.68748 46.3993 4.7333 46.5278 4.81914C46.6563 4.90499 46.7564 5.027 46.8155 5.16976C46.8747 5.31251 46.8901 5.4696 46.86 5.62114C46.8298 5.77269 46.7554 5.9119 46.6462 6.02116C46.5369 6.13042 46.3977 6.20482 46.2462 6.23497C46.0946 6.26511 45.9375 6.24964 45.7948 6.19051C45.652 6.13138 45.53 6.03124 45.4442 5.90277C45.3583 5.77429 45.3125 5.62325 45.3125 5.46873C45.3125 5.26153 45.3948 5.06282 45.5413 4.9163C45.6878 4.76979 45.8865 4.68748 46.0938 4.68748Z" fill="#0E3367"/>
<path id="Vector_7" d="M3.90603 7.8125C4.38905 7.8105 4.85965 7.65931 5.25345 7.37962C5.64726 7.09993 5.94503 6.7054 6.10603 6.25H16.406V4.6875H6.10603C5.96211 4.28346 5.70989 3.92675 5.37695 3.65635C5.04401 3.38596 4.64315 3.21228 4.21817 3.15429C3.7932 3.09631 3.36046 3.15625 2.96725 3.32757C2.57404 3.49889 2.23549 3.775 1.98858 4.12571C1.74168 4.47643 1.59592 4.88827 1.56725 5.31622C1.53857 5.74417 1.62808 6.17177 1.82598 6.55229C2.02389 6.93282 2.32258 7.25162 2.68942 7.47387C3.05625 7.69612 3.47712 7.81326 3.90603 7.8125ZM3.90603 4.6875C4.06055 4.6875 4.2116 4.73332 4.34007 4.81916C4.46855 4.90501 4.56868 5.02702 4.62781 5.16978C4.68694 5.31253 4.70242 5.46961 4.67227 5.62116C4.64213 5.77271 4.56772 5.91192 4.45846 6.02118C4.3492 6.13043 4.20999 6.20484 4.05845 6.23499C3.9069 6.26513 3.74982 6.24966 3.60706 6.19053C3.46431 6.1314 3.34229 6.03126 3.25645 5.90279C3.1706 5.77431 3.12478 5.62326 3.12478 5.46875C3.12478 5.26155 3.20709 5.06283 3.35361 4.91632C3.50012 4.76981 3.69883 4.6875 3.90603 4.6875Z" fill="#0E3367"/>
<path id="Vector_8" d="M30.4688 39.8438H19.5312V41.4062H30.4688V39.8438Z" fill="#0E3367"/>
<path id="Vector_9" d="M42.9688 35.9375V34.375H41.4062C41.1991 34.3766 41.0005 34.4577 40.8516 34.6016L39.6094 35.8516L37.4453 29.0157C37.1585 28.2892 36.659 27.6663 36.0122 27.2285C35.3653 26.7908 34.6013 26.5587 33.8203 26.5625H16.1797C15.3891 26.5616 14.6168 26.8009 13.9652 27.2487C13.3137 27.6966 12.8136 28.3319 12.5313 29.0704L10.3906 35.8516L9.14844 34.6016C8.99947 34.4577 8.80087 34.3766 8.59375 34.375H7.03125V35.9375H8.27344L9.05469 36.7188L8.03906 37.7266C7.89516 37.8756 7.81404 38.0742 7.8125 38.2813V44.5313C7.8125 44.7385 7.89481 44.9372 8.04132 45.0837C8.18784 45.2302 8.38655 45.3125 8.59375 45.3125H9.375V46.0938C9.37685 46.7148 9.62438 47.3099 10.0635 47.749C10.5027 48.1882 11.0977 48.4357 11.7188 48.4375H13.2812C13.9023 48.4357 14.4973 48.1882 14.9365 47.749C15.3756 47.3099 15.6231 46.7148 15.625 46.0938V45.3125H34.375V46.0938C34.3769 46.7148 34.6244 47.3099 35.0635 47.749C35.5027 48.1882 36.0977 48.4357 36.7188 48.4375H38.2812C38.9023 48.4357 39.4973 48.1882 39.9365 47.749C40.3756 47.3099 40.6231 46.7148 40.625 46.0938V45.3125H41.4062C41.6134 45.3125 41.8122 45.2302 41.9587 45.0837C42.1052 44.9372 42.1875 44.7385 42.1875 44.5313V38.2813C42.186 38.0742 42.1048 37.8756 41.9609 37.7266L40.9453 36.7188L41.7266 35.9375H42.9688ZM14 29.6016C14.1723 29.1646 14.4726 28.7898 14.8616 28.5263C15.2505 28.2629 15.7099 28.123 16.1797 28.125H33.8203C34.2805 28.1202 34.7316 28.253 35.1158 28.5064C35.5 28.7597 35.7997 29.1221 35.9766 29.5469L38 35.9375H35.1562V33.5938C35.1544 32.9728 34.9069 32.3777 34.4677 31.9386C34.0286 31.4994 33.4335 31.2519 32.8125 31.25H29.6875C29.0665 31.2519 28.4714 31.4994 28.0323 31.9386C27.5931 32.3777 27.3456 32.9728 27.3438 33.5938V35.9375H22.6562V33.5938C22.6544 32.9728 22.4069 32.3777 21.9677 31.9386C21.5286 31.4994 20.9335 31.2519 20.3125 31.25H17.1875C16.5665 31.2519 15.9714 31.4994 15.5323 31.9386C15.0931 32.3777 14.8456 32.9728 14.8438 33.5938V35.9375H12L14 29.6016ZM33.5938 33.5938V35.9375H28.9062V33.5938C28.9062 33.3866 28.9886 33.1879 29.1351 33.0414C29.2816 32.8949 29.4803 32.8125 29.6875 32.8125H32.8125C33.0197 32.8125 33.2184 32.8949 33.3649 33.0414C33.5114 33.1879 33.5938 33.3866 33.5938 33.5938ZM21.0938 33.5938V35.9375H16.4062V33.5938C16.4062 33.3866 16.4886 33.1879 16.6351 33.0414C16.7816 32.8949 16.9803 32.8125 17.1875 32.8125H20.3125C20.5197 32.8125 20.7184 32.8949 20.8649 33.0414C21.0114 33.1879 21.0938 33.3866 21.0938 33.5938ZM40.625 43.75H39.8438C39.6366 43.75 39.4378 43.8324 39.2913 43.9789C39.1448 44.1254 39.0625 44.3241 39.0625 44.5313V46.0938C39.0625 46.301 38.9802 46.4997 38.8337 46.6462C38.6872 46.7927 38.4885 46.875 38.2812 46.875H36.7188C36.5115 46.875 36.3128 46.7927 36.1663 46.6462C36.0198 46.4997 35.9375 46.301 35.9375 46.0938V44.5313C35.9375 44.3241 35.8552 44.1254 35.7087 43.9789C35.5622 43.8324 35.3635 43.75 35.1562 43.75H14.8438C14.6365 43.75 14.4378 43.8324 14.2913 43.9789C14.1448 44.1254 14.0625 44.3241 14.0625 44.5313V46.0938C14.0625 46.301 13.9802 46.4997 13.8337 46.6462C13.6872 46.7927 13.4885 46.875 13.2812 46.875H11.7188C11.5115 46.875 11.3128 46.7927 11.1663 46.6462C11.0198 46.4997 10.9375 46.301 10.9375 46.0938V44.5313C10.9375 44.3241 10.8552 44.1254 10.7087 43.9789C10.5622 43.8324 10.3635 43.75 10.1562 43.75H9.375V38.6016L10.4766 37.5H39.5234L40.625 38.6016V43.75Z" fill="#0E3367"/>
<path id="Vector_10" d="M39.0625 38.2812H34.375C33.754 38.2831 33.1589 38.5306 32.7198 38.9698C32.2806 39.4089 32.0331 40.004 32.0312 40.625V42.1875C32.0312 42.3947 32.1136 42.5934 32.2601 42.7399C32.4066 42.8864 32.6053 42.9688 32.8125 42.9688H37.5C38.121 42.9669 38.7161 42.7194 39.1552 42.2802C39.5944 41.8411 39.8419 41.246 39.8438 40.625V39.0625C39.8438 38.8553 39.7614 38.6566 39.6149 38.5101C39.4684 38.3636 39.2697 38.2812 39.0625 38.2812ZM38.2812 40.625C38.2812 40.8322 38.1989 41.0309 38.0524 41.1774C37.9059 41.3239 37.7072 41.4062 37.5 41.4062H33.5938V40.625C33.5938 40.4178 33.6761 40.2191 33.8226 40.0726C33.9691 39.9261 34.1678 39.8438 34.375 39.8438H38.2812V40.625Z" fill="#0E3367"/>
<path id="Vector_11" d="M15.625 38.2812H10.9375C10.7303 38.2812 10.5316 38.3636 10.3851 38.5101C10.2386 38.6566 10.1562 38.8553 10.1562 39.0625V40.625C10.1581 41.246 10.4056 41.8411 10.8448 42.2802C11.2839 42.7194 11.879 42.9669 12.5 42.9688H17.1875C17.3947 42.9688 17.5934 42.8864 17.7399 42.7399C17.8864 42.5934 17.9688 42.3947 17.9688 42.1875V40.625C17.9669 40.004 17.7194 39.4089 17.2802 38.9698C16.8411 38.5306 16.246 38.2831 15.625 38.2812ZM16.4062 41.4062H12.5C12.2928 41.4062 12.0941 41.3239 11.9476 41.1774C11.8011 41.0309 11.7188 40.8322 11.7188 40.625V39.8438H15.625C15.8322 39.8438 16.0309 39.9261 16.1774 40.0726C16.3239 40.2191 16.4062 40.4178 16.4062 40.625V41.4062Z" fill="#0E3367"/>
<path id="Vector_12" d="M25 11.7188C25.6181 11.7188 26.2223 11.5355 26.7362 11.1921C27.2501 10.8487 27.6506 10.3607 27.8871 9.78964C28.1237 9.21862 28.1855 8.59029 28.065 7.98409C27.9444 7.3779 27.6468 6.82108 27.2097 6.38404C26.7727 5.947 26.2159 5.64938 25.6097 5.5288C25.0035 5.40822 24.3751 5.4701 23.8041 5.70663C23.2331 5.94315 22.745 6.34369 22.4017 6.85759C22.0583 7.3715 21.875 7.97569 21.875 8.59375C21.875 9.42255 22.2042 10.2174 22.7903 10.8035C23.3763 11.3895 24.1712 11.7188 25 11.7188ZM25 7.03125C25.309 7.03125 25.6111 7.12289 25.8681 7.29458C26.125 7.46627 26.3253 7.7103 26.4436 7.99581C26.5618 8.28132 26.5928 8.59548 26.5325 8.89858C26.4722 9.20168 26.3234 9.48009 26.1049 9.69861C25.8863 9.91713 25.6079 10.0659 25.3048 10.1262C25.0017 10.1865 24.6876 10.1556 24.4021 10.0373C24.1166 9.91905 23.8725 9.71878 23.7008 9.46183C23.5291 9.20488 23.4375 8.90279 23.4375 8.59375C23.4375 8.17935 23.6021 7.78192 23.8952 7.4889C24.1882 7.19587 24.5856 7.03125 25 7.03125Z" fill="#0E3367"/>
<path id="Vector_13" d="M31.4375 6.27344L30.9141 6.14062L31.1953 5.67969C31.2847 5.53045 31.3217 5.35565 31.3005 5.18299C31.2792 5.01034 31.201 4.84971 31.0781 4.72656L28.8672 2.51562C28.7432 2.39419 28.5827 2.31693 28.4105 2.29575C28.2382 2.27457 28.0638 2.31065 27.9141 2.39844L27.4531 2.67969L27.3203 2.15625C27.2784 1.98687 27.1811 1.83639 27.0437 1.72878C26.9064 1.62117 26.737 1.56263 26.5625 1.5625H23.4375C23.263 1.56263 23.0936 1.62117 22.9563 1.72878C22.8189 1.83639 22.7216 1.98687 22.6797 2.15625L22.5469 2.67969L22.0859 2.39844C21.9362 2.31065 21.7618 2.27457 21.5895 2.29575C21.4173 2.31693 21.2568 2.39419 21.1328 2.51562L18.9219 4.72656C18.799 4.84971 18.7208 5.01034 18.6995 5.18299C18.6783 5.35565 18.7153 5.53045 18.8047 5.67969L19.0859 6.14062L18.5625 6.27344C18.3931 6.31531 18.2426 6.41268 18.135 6.55002C18.0274 6.68736 17.9689 6.85677 17.9688 7.03125V10.1562C17.9689 10.3307 18.0274 10.5001 18.135 10.6375C18.2426 10.7748 18.3931 10.8722 18.5625 10.9141L19.0859 11.0469L18.8047 11.5078C18.7153 11.6571 18.6783 11.8319 18.6995 12.0045C18.7208 12.1772 18.799 12.3378 18.9219 12.4609L21.1328 14.6719C21.256 14.7947 21.4166 14.873 21.5892 14.8942C21.7619 14.9154 21.9367 14.8784 22.0859 14.7891L22.5469 14.5078L22.6797 15.0312C22.7216 15.2006 22.8189 15.3511 22.9563 15.4587C23.0936 15.5663 23.263 15.6249 23.4375 15.625H26.5625C26.737 15.6249 26.9064 15.5663 27.0437 15.4587C27.1811 15.3511 27.2784 15.2006 27.3203 15.0312L27.4531 14.5078L27.9141 14.7891C28.0633 14.8784 28.2381 14.9154 28.4108 14.8942C28.5834 14.873 28.744 14.7947 28.8672 14.6719L31.0781 12.4609C31.201 12.3378 31.2792 12.1772 31.3005 12.0045C31.3217 11.8319 31.2847 11.6571 31.1953 11.5078L30.9141 11.0469L31.4375 10.9141C31.6069 10.8722 31.7574 10.7748 31.865 10.6375C31.9726 10.5001 32.0311 10.3307 32.0312 10.1562V7.03125C32.0311 6.85677 31.9726 6.68736 31.865 6.55002C31.7574 6.41268 31.6069 6.31531 31.4375 6.27344ZM30.4687 9.54688L29.5156 9.78125C29.3974 9.8116 29.2878 9.86904 29.1956 9.94905C29.1034 10.029 29.0311 10.1294 28.9844 10.2422C28.9377 10.3551 28.9176 10.4773 28.9258 10.5992C28.9339 10.7211 28.97 10.8396 29.0312 10.9453L29.5391 11.7891L28.1953 13.1328L27.3516 12.6328C27.2471 12.5686 27.1289 12.5301 27.0066 12.5206C26.8843 12.5111 26.7616 12.5308 26.6484 12.5781C26.5357 12.6248 26.4353 12.6972 26.3553 12.7894C26.2753 12.8816 26.2178 12.9911 26.1875 13.1094L25.9531 14.0625H24.0469L23.8125 13.1094C23.7822 12.9911 23.7247 12.8816 23.6447 12.7894C23.5647 12.6972 23.4643 12.6248 23.3516 12.5781C23.2384 12.5308 23.1157 12.5111 22.9934 12.5206C22.8711 12.5301 22.7529 12.5686 22.6484 12.6328L21.8047 13.1328L20.4609 11.7891L20.9687 10.9453C21.03 10.8396 21.0661 10.7211 21.0742 10.5992C21.0824 10.4773 21.0623 10.3551 21.0156 10.2422C20.9689 10.1294 20.8966 10.029 20.8044 9.94905C20.7122 9.86904 20.6026 9.8116 20.4844 9.78125L19.5312 9.54688V7.64062L20.4844 7.40625C20.6026 7.3759 20.7122 7.31846 20.8044 7.23846C20.8966 7.15845 20.9689 7.05809 21.0156 6.94531C21.0623 6.83238 21.0824 6.71021 21.0742 6.58828C21.0661 6.46635 21.03 6.34793 20.9687 6.24219L20.4609 5.39844L21.8047 4.05469L22.6484 4.55469C22.7528 4.61907 22.8711 4.65762 22.9934 4.66713C23.1157 4.67664 23.2385 4.65684 23.3516 4.60938C23.4643 4.56266 23.5647 4.49033 23.6447 4.39813C23.7247 4.30592 23.7822 4.19637 23.8125 4.07812L24.0469 3.125H25.9531L26.1875 4.07812C26.2178 4.19637 26.2753 4.30592 26.3553 4.39813C26.4353 4.49033 26.5357 4.56266 26.6484 4.60938C26.7616 4.65671 26.8843 4.67644 27.0066 4.66693C27.1289 4.65742 27.2471 4.61895 27.3516 4.55469L28.1953 4.05469L29.5391 5.39844L29.0312 6.24219C28.97 6.34793 28.9339 6.46635 28.9258 6.58828C28.9176 6.71021 28.9377 6.83238 28.9844 6.94531C29.0311 7.05809 29.1034 7.15845 29.1956 7.23846C29.2878 7.31846 29.3974 7.3759 29.5156 7.40625L30.4687 7.64062V9.54688Z" fill="#0E3367"/>
</g>
</g>
</svg>
